<svg xmlns="http://www.w3.org/2000/svg" xmlns:xlink="http://www.w3.org/1999/xlink" width="750" zoomAndPan="magnify" viewBox="0 0 562.5 37.5" height="50" preserveAspectRatio="xMidYMid meet" version="1.0"><defs><filter x="0%" y="0%" width="100%" height="100%" id="a013513e13"><feColorMatrix values="0 0 0 0 1 0 0 0 0 1 0 0 0 0 1 0 0 0 1 0" color-interpolation-filters="sRGB"/></filter><clipPath id="74c3bb1962"><path d="M 3.453125 0 L 558.550781 0 L 558.550781 37.007812 L 3.453125 37.007812 Z M 3.453125 0 " clip-rule="nonzero"/></clipPath><mask id="e0c2b0ec0f"><g filter="url(#a013513e13)"><rect x="-56.25" width="675" fill="#000000" y="-3.75" height="45" fill-opacity="0.8"/></g></mask><clipPath id="4f051797b3"><path d="M 293 0.644531 L 402 0.644531 L 402 35.429688 L 293 35.429688 Z M 293 0.644531 " clip-rule="nonzero"/></clipPath><clipPath id="1f6f159054"><path d="M 150.734375 -281.671875 L 642.570312 -14.875 L 434.355469 368.964844 L -57.480469 102.167969 Z M 150.734375 -281.671875 " clip-rule="nonzero"/></clipPath><clipPath id="1e7916819e"><path d="M 195 0.644531 L 425 0.644531 L 425 35.429688 L 195 35.429688 Z M 195 0.644531 " clip-rule="nonzero"/></clipPath><clipPath id="7248101b41"><path d="M 150.734375 -281.671875 L 642.570312 -14.875 L 434.355469 368.964844 L -57.480469 102.167969 Z M 150.734375 -281.671875 " clip-rule="nonzero"/></clipPath><clipPath id="801fe34cb7"><path d="M 349 33 L 359 33 L 359 35.429688 L 349 35.429688 Z M 349 33 " clip-rule="nonzero"/></clipPath><clipPath id="677ed5ff17"><path d="M 150.734375 -281.671875 L 642.570312 -14.875 L 434.355469 368.964844 L -57.480469 102.167969 Z M 150.734375 -281.671875 " clip-rule="nonzero"/></clipPath><clipPath id="057dbbcb34"><path d="M 271 0.644531 L 281 0.644531 L 281 10 L 271 10 Z M 271 0.644531 " clip-rule="nonzero"/></clipPath><clipPath id="592d76b0cc"><path d="M 150.734375 -281.671875 L 642.570312 -14.875 L 434.355469 368.964844 L -57.480469 102.167969 Z M 150.734375 -281.671875 " clip-rule="nonzero"/></clipPath><clipPath id="bc4fe86525"><path d="M 442 0.644531 L 555.550781 0.644531 L 555.550781 35.429688 L 442 35.429688 Z M 442 0.644531 " clip-rule="nonzero"/></clipPath><clipPath id="f9c8020483"><path d="M 150.734375 -281.671875 L 642.570312 -14.875 L 434.355469 368.964844 L -57.480469 102.167969 Z M 150.734375 -281.671875 " clip-rule="nonzero"/></clipPath><clipPath id="8bf52660ed"><path d="M 355 0.644531 L 430 0.644531 L 430 35.429688 L 355 35.429688 Z M 355 0.644531 " clip-rule="nonzero"/></clipPath><clipPath id="da7a7a0cc4"><path d="M 150.734375 -281.671875 L 642.570312 -14.875 L 434.355469 368.964844 L -57.480469 102.167969 Z M 150.734375 -281.671875 " clip-rule="nonzero"/></clipPath><clipPath id="bf8ea6b892"><path d="M 366 0.644531 L 481 0.644531 L 481 35.429688 L 366 35.429688 Z M 366 0.644531 " clip-rule="nonzero"/></clipPath><clipPath id="37a5074d89"><path d="M 150.734375 -281.671875 L 642.570312 -14.875 L 434.355469 368.964844 L -57.480469 102.167969 Z M 150.734375 -281.671875 " clip-rule="nonzero"/></clipPath><clipPath id="c7122705a6"><path d="M 535 19 L 555.550781 19 L 555.550781 26 L 535 26 Z M 535 19 " clip-rule="nonzero"/></clipPath><clipPath id="ad1d309d2b"><path d="M 150.734375 -281.671875 L 642.570312 -14.875 L 434.355469 368.964844 L -57.480469 102.167969 Z M 150.734375 -281.671875 " clip-rule="nonzero"/></clipPath><clipPath id="544ef0c9cb"><path d="M 342 0.644531 L 555.550781 0.644531 L 555.550781 35.429688 L 342 35.429688 Z M 342 0.644531 " clip-rule="nonzero"/></clipPath><clipPath id="13d6ce1d9d"><path d="M 150.734375 -281.671875 L 642.570312 -14.875 L 434.355469 368.964844 L -57.480469 102.167969 Z M 150.734375 -281.671875 " clip-rule="nonzero"/></clipPath><clipPath id="275c6025a1"><path d="M 389 0.644531 L 433 0.644531 L 433 15 L 389 15 Z M 389 0.644531 " clip-rule="nonzero"/></clipPath><clipPath id="f22f8941da"><path d="M 150.734375 -281.671875 L 642.570312 -14.875 L 434.355469 368.964844 L -57.480469 102.167969 Z M 150.734375 -281.671875 " clip-rule="nonzero"/></clipPath><clipPath id="3eba800392"><path d="M 430 5 L 448 5 L 448 22 L 430 22 Z M 430 5 " clip-rule="nonzero"/></clipPath><clipPath id="36eeab5d9d"><path d="M 150.734375 -281.671875 L 642.570312 -14.875 L 434.355469 368.964844 L -57.480469 102.167969 Z M 150.734375 -281.671875 " clip-rule="nonzero"/></clipPath><clipPath id="88670a27ec"><path d="M 331 0.644531 L 385 0.644531 L 385 35.429688 L 331 35.429688 Z M 331 0.644531 " clip-rule="nonzero"/></clipPath><clipPath id="cb77d915a1"><path d="M 150.734375 -281.671875 L 642.570312 -14.875 L 434.355469 368.964844 L -57.480469 102.167969 Z M 150.734375 -281.671875 " clip-rule="nonzero"/></clipPath><clipPath id="f418ea6680"><path d="M 529 20 L 538 20 L 538 30 L 529 30 Z M 529 20 " clip-rule="nonzero"/></clipPath><clipPath id="ccc2401573"><path d="M 150.734375 -281.671875 L 642.570312 -14.875 L 434.355469 368.964844 L -57.480469 102.167969 Z M 150.734375 -281.671875 " clip-rule="nonzero"/></clipPath><clipPath id="b3f03fdc1c"><path d="M 385 10 L 394 10 L 394 19 L 385 19 Z M 385 10 " clip-rule="nonzero"/></clipPath><clipPath id="acdc5c1046"><path d="M 150.734375 -281.671875 L 642.570312 -14.875 L 434.355469 368.964844 L -57.480469 102.167969 Z M 150.734375 -281.671875 " clip-rule="nonzero"/></clipPath><clipPath id="15bdaceee6"><path d="M 342 22 L 351 22 L 351 32 L 342 32 Z M 342 22 " clip-rule="nonzero"/></clipPath><clipPath id="f0155b13b9"><path d="M 150.734375 -281.671875 L 642.570312 -14.875 L 434.355469 368.964844 L -57.480469 102.167969 Z M 150.734375 -281.671875 " clip-rule="nonzero"/></clipPath><clipPath id="7414ada057"><path d="M 442 14 L 452 14 L 452 24 L 442 24 Z M 442 14 " clip-rule="nonzero"/></clipPath><clipPath id="20ee49f469"><path d="M 150.734375 -281.671875 L 642.570312 -14.875 L 434.355469 368.964844 L -57.480469 102.167969 Z M 150.734375 -281.671875 " clip-rule="nonzero"/></clipPath><clipPath id="5ebad157ea"><path d="M 428 2 L 435 2 L 435 9 L 428 9 Z M 428 2 " clip-rule="nonzero"/></clipPath><clipPath id="b759cffaec"><path d="M 150.734375 -281.671875 L 642.570312 -14.875 L 434.355469 368.964844 L -57.480469 102.167969 Z M 150.734375 -281.671875 " clip-rule="nonzero"/></clipPath><clipPath id="95f2009233"><path d="M 415 28 L 422 28 L 422 35.429688 L 415 35.429688 Z M 415 28 " clip-rule="nonzero"/></clipPath><clipPath id="9667f204dd"><path d="M 150.734375 -281.671875 L 642.570312 -14.875 L 434.355469 368.964844 L -57.480469 102.167969 Z M 150.734375 -281.671875 " clip-rule="nonzero"/></clipPath><clipPath id="5d1af743e3"><path d="M 462 9 L 470 9 L 470 16 L 462 16 Z M 462 9 " clip-rule="nonzero"/></clipPath><clipPath id="63681d79a5"><path d="M 150.734375 -281.671875 L 642.570312 -14.875 L 434.355469 368.964844 L -57.480469 102.167969 Z M 150.734375 -281.671875 " clip-rule="nonzero"/></clipPath><clipPath id="b9e001a025"><path d="M 475 26 L 482 26 L 482 33 L 475 33 Z M 475 26 " clip-rule="nonzero"/></clipPath><clipPath id="e6a66dbbe9"><path d="M 150.734375 -281.671875 L 642.570312 -14.875 L 434.355469 368.964844 L -57.480469 102.167969 Z M 150.734375 -281.671875 " clip-rule="nonzero"/></clipPath><clipPath id="95fef92a24"><path d="M 380 34 L 387 34 L 387 35.429688 L 380 35.429688 Z M 380 34 " clip-rule="nonzero"/></clipPath><clipPath id="001fb455a1"><path d="M 150.734375 -281.671875 L 642.570312 -14.875 L 434.355469 368.964844 L -57.480469 102.167969 Z M 150.734375 -281.671875 " clip-rule="nonzero"/></clipPath><clipPath id="87bf6b8030"><path d="M 537 0.644531 L 544 0.644531 L 544 7 L 537 7 Z M 537 0.644531 " clip-rule="nonzero"/></clipPath><clipPath id="0e2c4c9c2e"><path d="M 150.734375 -281.671875 L 642.570312 -14.875 L 434.355469 368.964844 L -57.480469 102.167969 Z M 150.734375 -281.671875 " clip-rule="nonzero"/></clipPath><clipPath id="8673271baf"><path d="M 352 0.644531 L 360 0.644531 L 360 4 L 352 4 Z M 352 0.644531 " clip-rule="nonzero"/></clipPath><clipPath id="8c5a550a45"><path d="M 150.734375 -281.671875 L 642.570312 -14.875 L 434.355469 368.964844 L -57.480469 102.167969 Z M 150.734375 -281.671875 " clip-rule="nonzero"/></clipPath><clipPath id="22d33c8da4"><path d="M 92 11 L 231 11 L 231 35.429688 L 92 35.429688 Z M 92 11 " clip-rule="nonzero"/></clipPath><clipPath id="7746d352fa"><path d="M 150.734375 -281.671875 L 642.570312 -14.875 L 434.355469 368.964844 L -57.480469 102.167969 Z M 150.734375 -281.671875 " clip-rule="nonzero"/></clipPath><clipPath id="134a2c083c"><path d="M 17 32 L 132 32 L 132 35.429688 L 17 35.429688 Z M 17 32 " clip-rule="nonzero"/></clipPath><clipPath id="d8d101fd9a"><path d="M 150.734375 -281.671875 L 642.570312 -14.875 L 434.355469 368.964844 L -57.480469 102.167969 Z M 150.734375 -281.671875 " clip-rule="nonzero"/></clipPath><clipPath id="41a77701e0"><path d="M 0.453125 0.644531 L 233 0.644531 L 233 35.429688 L 0.453125 35.429688 Z M 0.453125 0.644531 " clip-rule="nonzero"/></clipPath><clipPath id="d1706a8d05"><path d="M 150.734375 -281.671875 L 642.570312 -14.875 L 434.355469 368.964844 L -57.480469 102.167969 Z M 150.734375 -281.671875 " clip-rule="nonzero"/></clipPath><clipPath id="be002f1d0f"><path d="M 22 0.644531 L 96 0.644531 L 96 16 L 22 16 Z M 22 0.644531 " clip-rule="nonzero"/></clipPath><clipPath id="65c367b052"><path d="M 150.734375 -281.671875 L 642.570312 -14.875 L 434.355469 368.964844 L -57.480469 102.167969 Z M 150.734375 -281.671875 " clip-rule="nonzero"/></clipPath><clipPath id="88da68c070"><path d="M 39 9 L 83 9 L 83 35.429688 L 39 35.429688 Z M 39 9 " clip-rule="nonzero"/></clipPath><clipPath id="2ee999dfbe"><path d="M 150.734375 -281.671875 L 642.570312 -14.875 L 434.355469 368.964844 L -57.480469 102.167969 Z M 150.734375 -281.671875 " clip-rule="nonzero"/></clipPath><clipPath id="e4c318830a"><path d="M 93 0.644531 L 217 0.644531 L 217 22 L 93 22 Z M 93 0.644531 " clip-rule="nonzero"/></clipPath><clipPath id="9ea868f378"><path d="M 150.734375 -281.671875 L 642.570312 -14.875 L 434.355469 368.964844 L -57.480469 102.167969 Z M 150.734375 -281.671875 " clip-rule="nonzero"/></clipPath><clipPath id="2bd56283b8"><path d="M 19 0.644531 L 29 0.644531 L 29 9 L 19 9 Z M 19 0.644531 " clip-rule="nonzero"/></clipPath><clipPath id="2618a5fafe"><path d="M 150.734375 -281.671875 L 642.570312 -14.875 L 434.355469 368.964844 L -57.480469 102.167969 Z M 150.734375 -281.671875 " clip-rule="nonzero"/></clipPath><clipPath id="c7a5900912"><path d="M 89 10 L 99 10 L 99 20 L 89 20 Z M 89 10 " clip-rule="nonzero"/></clipPath><clipPath id="adef1cc677"><path d="M 150.734375 -281.671875 L 642.570312 -14.875 L 434.355469 368.964844 L -57.480469 102.167969 Z M 150.734375 -281.671875 " clip-rule="nonzero"/></clipPath><clipPath id="df5fcbd35d"><path d="M 210 9 L 219 9 L 219 19 L 210 19 Z M 210 9 " clip-rule="nonzero"/></clipPath><clipPath id="5f6c36e41f"><path d="M 150.734375 -281.671875 L 642.570312 -14.875 L 434.355469 368.964844 L -57.480469 102.167969 Z M 150.734375 -281.671875 " clip-rule="nonzero"/></clipPath><clipPath id="5ffe195a1d"><path d="M 65 7 L 72 7 L 72 14 L 65 14 Z M 65 7 " clip-rule="nonzero"/></clipPath><clipPath id="4ca7634c73"><path d="M 150.734375 -281.671875 L 642.570312 -14.875 L 434.355469 368.964844 L -57.480469 102.167969 Z M 150.734375 -281.671875 " clip-rule="nonzero"/></clipPath><clipPath id="cc150f491d"><path d="M 43 21 L 50 21 L 50 28 L 43 28 Z M 43 21 " clip-rule="nonzero"/></clipPath><clipPath id="b6a85f572e"><path d="M 150.734375 -281.671875 L 642.570312 -14.875 L 434.355469 368.964844 L -57.480469 102.167969 Z M 150.734375 -281.671875 " clip-rule="nonzero"/></clipPath><clipPath id="e6e5167d78"><path d="M 127 27 L 134 27 L 134 35 L 127 35 Z M 127 27 " clip-rule="nonzero"/></clipPath><clipPath id="b0d8bf201a"><path d="M 150.734375 -281.671875 L 642.570312 -14.875 L 434.355469 368.964844 L -57.480469 102.167969 Z M 150.734375 -281.671875 " clip-rule="nonzero"/></clipPath><clipPath id="2c3291952b"><path d="M 185 18 L 192 18 L 192 25 L 185 25 Z M 185 18 " clip-rule="nonzero"/></clipPath><clipPath id="75b7b9cde9"><path d="M 150.734375 -281.671875 L 642.570312 -14.875 L 434.355469 368.964844 L -57.480469 102.167969 Z M 150.734375 -281.671875 " clip-rule="nonzero"/></clipPath><clipPath id="5b17900c02"><path d="M 174 0.644531 L 423 0.644531 L 423 35.429688 L 174 35.429688 Z M 174 0.644531 " clip-rule="nonzero"/></clipPath><clipPath id="136ae1891c"><path d="M 150.734375 -281.671875 L 642.570312 -14.875 L 434.355469 368.964844 L -57.480469 102.167969 Z M 150.734375 -281.671875 " clip-rule="nonzero"/></clipPath><clipPath id="7da463d079"><path d="M 162 0.644531 L 248 0.644531 L 248 35.429688 L 162 35.429688 Z M 162 0.644531 " clip-rule="nonzero"/></clipPath><clipPath id="26c27f5e60"><path d="M 150.734375 -281.671875 L 642.570312 -14.875 L 434.355469 368.964844 L -57.480469 102.167969 Z M 150.734375 -281.671875 " clip-rule="nonzero"/></clipPath><clipPath id="360acfad2d"><path d="M 162 0.644531 L 266 0.644531 L 266 35.429688 L 162 35.429688 Z M 162 0.644531 " clip-rule="nonzero"/></clipPath><clipPath id="7eff389e77"><path d="M 150.734375 -281.671875 L 642.570312 -14.875 L 434.355469 368.964844 L -57.480469 102.167969 Z M 150.734375 -281.671875 " clip-rule="nonzero"/></clipPath><clipPath id="82cd28a48c"><path d="M 290 0.644531 L 393 0.644531 L 393 35.429688 L 290 35.429688 Z M 290 0.644531 " clip-rule="nonzero"/></clipPath><clipPath id="636e00f01d"><path d="M 150.734375 -281.671875 L 642.570312 -14.875 L 434.355469 368.964844 L -57.480469 102.167969 Z M 150.734375 -281.671875 " clip-rule="nonzero"/></clipPath><clipPath id="9ed61ebb1e"><path d="M 253 0.644531 L 322 0.644531 L 322 27 L 253 27 Z M 253 0.644531 " clip-rule="nonzero"/></clipPath><clipPath id="fe95825f94"><path d="M 150.734375 -281.671875 L 642.570312 -14.875 L 434.355469 368.964844 L -57.480469 102.167969 Z M 150.734375 -281.671875 " clip-rule="nonzero"/></clipPath><clipPath id="b0846bf571"><path d="M 283 0.644531 L 292 0.644531 L 292 9 L 283 9 Z M 283 0.644531 " clip-rule="nonzero"/></clipPath><clipPath id="a9308a5348"><path d="M 150.734375 -281.671875 L 642.570312 -14.875 L 434.355469 368.964844 L -57.480469 102.167969 Z M 150.734375 -281.671875 " clip-rule="nonzero"/></clipPath><clipPath id="55f05a43ad"><path d="M 247 24 L 278 24 L 278 35.429688 L 247 35.429688 Z M 247 24 " clip-rule="nonzero"/></clipPath><clipPath id="069d4137fd"><path d="M 150.734375 -281.671875 L 642.570312 -14.875 L 434.355469 368.964844 L -57.480469 102.167969 Z M 150.734375 -281.671875 " clip-rule="nonzero"/></clipPath><clipPath id="1c0e4e1a09"><path d="M 190 0.644531 L 205 0.644531 L 205 31 L 190 31 Z M 190 0.644531 " clip-rule="nonzero"/></clipPath><clipPath id="7f2e7d86b2"><path d="M 150.734375 -281.671875 L 642.570312 -14.875 L 434.355469 368.964844 L -57.480469 102.167969 Z M 150.734375 -281.671875 " clip-rule="nonzero"/></clipPath><clipPath id="f636d998ca"><path d="M 385 10 L 393 10 L 393 19 L 385 19 Z M 385 10 " clip-rule="nonzero"/></clipPath><clipPath id="75926a933a"><path d="M 150.734375 -281.671875 L 642.570312 -14.875 L 434.355469 368.964844 L -57.480469 102.167969 Z M 150.734375 -281.671875 " clip-rule="nonzero"/></clipPath><clipPath id="c1b7c5fa27"><path d="M 199 24 L 208 24 L 208 33 L 199 33 Z M 199 24 " clip-rule="nonzero"/></clipPath><clipPath id="f108adbf1a"><path d="M 150.734375 -281.671875 L 642.570312 -14.875 L 434.355469 368.964844 L -57.480469 102.167969 Z M 150.734375 -281.671875 " clip-rule="nonzero"/></clipPath><clipPath id="f99448ebe2"><path d="M 203 0.644531 L 209 0.644531 L 209 4 L 203 4 Z M 203 0.644531 " clip-rule="nonzero"/></clipPath><clipPath id="da6c9713a0"><path d="M 150.734375 -281.671875 L 642.570312 -14.875 L 434.355469 368.964844 L -57.480469 102.167969 Z M 150.734375 -281.671875 " clip-rule="nonzero"/></clipPath><clipPath id="9220fe3e52"><path d="M 182 19 L 188 19 L 188 25 L 182 25 Z M 182 19 " clip-rule="nonzero"/></clipPath><clipPath id="d6e36fa270"><path d="M 150.734375 -281.671875 L 642.570312 -14.875 L 434.355469 368.964844 L -57.480469 102.167969 Z M 150.734375 -281.671875 " clip-rule="nonzero"/></clipPath><clipPath id="0313e85db1"><path d="M 336 1 L 342 1 L 342 7 L 336 7 Z M 336 1 " clip-rule="nonzero"/></clipPath><clipPath id="02d052a771"><path d="M 150.734375 -281.671875 L 642.570312 -14.875 L 434.355469 368.964844 L -57.480469 102.167969 Z M 150.734375 -281.671875 " clip-rule="nonzero"/></clipPath><clipPath id="54000e5f94"><path d="M 253 23 L 259 23 L 259 29 L 253 29 Z M 253 23 " clip-rule="nonzero"/></clipPath><clipPath id="41c4b67327"><path d="M 150.734375 -281.671875 L 642.570312 -14.875 L 434.355469 368.964844 L -57.480469 102.167969 Z M 150.734375 -281.671875 " clip-rule="nonzero"/></clipPath><clipPath id="9f5524283d"><path d="M 287 4 L 296 4 L 296 13 L 287 13 Z M 287 4 " clip-rule="nonzero"/></clipPath><clipPath id="9837029828"><path d="M 150.734375 -281.671875 L 642.570312 -14.875 L 434.355469 368.964844 L -57.480469 102.167969 Z M 150.734375 -281.671875 " clip-rule="nonzero"/></clipPath><clipPath id="a49ae5672c"><rect x="0" width="556" y="0" height="38"/></clipPath></defs><g clip-path="url(#74c3bb1962)"><g mask="url(#e0c2b0ec0f)"><g transform="matrix(1, 0, 0, 1, 3, -0.000000000000001478)"><g clip-path="url(#a49ae5672c)"><g clip-path="url(#4f051797b3)"><g clip-path="url(#1f6f159054)"><path fill="#d9d9d9" d="M 353.320312 37.8125 L 327.820312 -20.011719 L 360.664062 -9.351562 L 365.839844 -38.015625 L 313.136719 -64.816406 L 293.035156 -44.246094 L 294.496094 -75.285156 L 312.757812 -66.09375 L 322.945312 -76.304688 L 384.554688 -50.753906 L 399.769531 -68.253906 L 351.34375 -100.960938 L 325.285156 -95.78125 L 337.429688 -139.269531 L 307.953125 -103.394531 L 306.847656 -103.996094 L 339.398438 -143.5625 L 326.460938 -97.289062 L 351.390625 -102.367188 L 351.664062 -102.214844 L 401.472656 -68.761719 L 385.082031 -49.753906 L 384.804688 -49.902344 L 323.625 -75.578125 L 314.164062 -66.046875 L 367.292969 -39.375 L 361.769531 -8.75 L 329.753906 -18.964844 L 354.195312 36.859375 Z M 295.703125 -73.558594 L 294.386719 -46.734375 L 312.308594 -65.265625 Z M 295.703125 -73.558594 " fill-opacity="1" fill-rule="nonzero"/></g></g><g clip-path="url(#1e7916819e)"><g clip-path="url(#7248101b41)"><path fill="#d9d9d9" d="M 277.824219 6.875 L 255.914062 -27.898438 L 236.859375 -21.785156 L 213.515625 -47.324219 L 224.710938 -66.644531 L 207.910156 -73.253906 L 221.414062 -102.769531 L 204.144531 -95.324219 L 195.804688 -132.039062 L 231.285156 -175.027344 L 221.398438 -131.746094 L 273.140625 -97.242188 L 286.363281 -97.222656 L 278.867188 -117.027344 L 249.5625 -136.855469 L 249.714844 -137.132812 L 257.183594 -183.871094 L 257.609375 -183.996094 L 297.34375 -198.566406 L 296.59375 -197.183594 L 297.023438 -197.3125 L 297.820312 -166.476562 L 306.917969 -127.203125 L 339.078125 -142.308594 L 351.964844 -102.769531 L 404.75 -116.339844 L 401.171875 -68.207031 L 325.582031 -75.234375 L 368.246094 -38.5 L 295.742188 -45.28125 L 331.710938 -18.617188 L 252.027344 -37.878906 L 251.898438 -38.304688 C 251.898438 -38.304688 249.03125 -53.453125 246.285156 -68.175781 C 240.542969 -98.472656 240.972656 -98.597656 241.546875 -99 L 241.695312 -99.277344 L 241.972656 -99.125 C 242.800781 -98.675781 276.082031 -84.203125 294.667969 -76.265625 L 286.765625 -96.644531 L 272.839844 -96.6875 L 220.269531 -131.644531 L 229.035156 -170.882812 L 197.335938 -131.566406 L 205.171875 -96.558594 L 223.871094 -104.65625 L 209.464844 -73.484375 L 226.542969 -66.722656 L 214.769531 -47 L 236.882812 -22.488281 L 255.9375 -28.601562 L 277.871094 5.46875 L 304.753906 -11.78125 L 305.03125 -11.628906 L 353.089844 36.257812 L 361.113281 -10.179688 L 361.261719 -10.457031 L 389.304688 -24.570312 L 384 -51.054688 L 424.261719 -56.042969 L 424.363281 -54.914062 L 385.082031 -49.753906 L 390.539062 -23.546875 L 390.113281 -23.417969 L 362.066406 -9.304688 L 354 38.539062 L 304.707031 -10.375 Z M 242.054688 -97.296875 C 242.441406 -92.078125 248.410156 -60.226562 252.601562 -38.28125 L 326.5625 -20.335938 L 291.976562 -46.25 L 364.757812 -39.316406 L 322.09375 -76.054688 L 399.917969 -68.53125 L 403.125 -114.003906 L 350.765625 -100.558594 L 337.878906 -140.097656 L 305.71875 -124.992188 L 296.242188 -165.542969 L 295.847656 -195.804688 L 271.789062 -149.480469 L 307.699219 -104.246094 L 329.222656 -95.792969 L 287.871094 -96.046875 L 296.40625 -73.535156 L 295.300781 -74.132812 C 293.214844 -74.90625 248.28125 -94.273438 242.054688 -97.296875 Z M 250.417969 -137.109375 L 279.441406 -117.429688 L 287.34375 -97.050781 L 323.351562 -96.832031 L 306.824219 -103.292969 L 270.511719 -149.097656 L 294.742188 -196.402344 L 257.710938 -182.867188 Z M 250.417969 -137.109375 " fill-opacity="1" fill-rule="nonzero"/></g></g><g clip-path="url(#801fe34cb7)"><g clip-path="url(#677ed5ff17)"><path fill="#004aad" d="M 357.890625 39.9375 C 357.753906 40.191406 357.59375 40.429688 357.40625 40.648438 C 357.222656 40.871094 357.019531 41.074219 356.792969 41.257812 C 356.570312 41.4375 356.328125 41.597656 356.074219 41.730469 C 355.816406 41.867188 355.550781 41.972656 355.273438 42.058594 C 354.996094 42.140625 354.714844 42.191406 354.425781 42.21875 C 354.140625 42.246094 353.851562 42.246094 353.5625 42.214844 C 353.277344 42.183594 352.996094 42.125 352.71875 42.042969 C 352.441406 41.957031 352.175781 41.84375 351.921875 41.707031 C 351.667969 41.566406 351.429688 41.40625 351.210938 41.222656 C 350.988281 41.039062 350.785156 40.832031 350.601562 40.609375 C 350.421875 40.382812 350.261719 40.144531 350.128906 39.886719 C 349.992188 39.632812 349.886719 39.367188 349.800781 39.089844 C 349.71875 38.8125 349.667969 38.527344 349.640625 38.242188 C 349.613281 37.953125 349.613281 37.667969 349.644531 37.378906 C 349.675781 37.089844 349.734375 36.808594 349.816406 36.535156 C 349.902344 36.257812 350.015625 35.992188 350.152344 35.738281 C 350.292969 35.484375 350.453125 35.246094 350.636719 35.023438 C 350.820312 34.800781 351.027344 34.597656 351.25 34.417969 C 351.476562 34.234375 351.714844 34.078125 351.972656 33.941406 C 352.226562 33.808594 352.492188 33.699219 352.769531 33.617188 C 353.046875 33.535156 353.332031 33.480469 353.617188 33.453125 C 353.90625 33.425781 354.191406 33.429688 354.480469 33.460938 C 354.769531 33.488281 355.050781 33.546875 355.324219 33.632812 C 355.601562 33.71875 355.867188 33.832031 356.121094 33.96875 C 356.375 34.105469 356.613281 34.265625 356.835938 34.453125 C 357.058594 34.636719 357.261719 34.839844 357.441406 35.066406 C 357.625 35.289062 357.78125 35.53125 357.917969 35.785156 C 358.050781 36.042969 358.160156 36.308594 358.242188 36.585938 C 358.324219 36.863281 358.378906 37.144531 358.40625 37.433594 C 358.433594 37.71875 358.429688 38.007812 358.398438 38.296875 C 358.371094 38.582031 358.3125 38.863281 358.226562 39.140625 C 358.140625 39.417969 358.027344 39.683594 357.890625 39.9375 Z M 357.890625 39.9375 " fill-opacity="1" fill-rule="nonzero"/></g></g><g clip-path="url(#057dbbcb34)"><g clip-path="url(#592d76b0cc)"><path fill="#004aad" d="M 279.78125 7.222656 C 279.644531 7.476562 279.484375 7.714844 279.296875 7.9375 C 279.113281 8.160156 278.910156 8.359375 278.683594 8.542969 C 278.460938 8.726562 278.21875 8.882812 277.964844 9.019531 C 277.707031 9.152344 277.441406 9.261719 277.164062 9.34375 C 276.886719 9.425781 276.605469 9.480469 276.316406 9.507812 C 276.03125 9.53125 275.742188 9.53125 275.453125 9.5 C 275.167969 9.472656 274.886719 9.414062 274.609375 9.328125 C 274.332031 9.242188 274.066406 9.128906 273.8125 8.992188 C 273.558594 8.855469 273.320312 8.695312 273.101562 8.507812 C 272.878906 8.324219 272.675781 8.121094 272.492188 7.894531 C 272.3125 7.671875 272.152344 7.429688 272.019531 7.175781 C 271.882812 6.917969 271.773438 6.652344 271.691406 6.375 C 271.609375 6.097656 271.554688 5.816406 271.53125 5.527344 C 271.503906 5.238281 271.503906 4.953125 271.535156 4.664062 C 271.566406 4.378906 271.625 4.097656 271.707031 3.820312 C 271.792969 3.542969 271.90625 3.277344 272.042969 3.023438 C 272.183594 2.769531 272.34375 2.53125 272.527344 2.308594 C 272.710938 2.089844 272.917969 1.886719 273.140625 1.703125 C 273.367188 1.523438 273.605469 1.363281 273.863281 1.230469 C 274.117188 1.09375 274.382812 0.984375 274.660156 0.902344 C 274.9375 0.820312 275.21875 0.765625 275.507812 0.742188 C 275.796875 0.714844 276.082031 0.714844 276.371094 0.746094 C 276.660156 0.777344 276.941406 0.832031 277.214844 0.917969 C 277.492188 1.003906 277.757812 1.117188 278.011719 1.253906 C 278.265625 1.390625 278.503906 1.554688 278.726562 1.738281 C 278.949219 1.921875 279.148438 2.128906 279.332031 2.351562 C 279.515625 2.578125 279.671875 2.816406 279.808594 3.074219 C 279.941406 3.328125 280.050781 3.59375 280.132812 3.871094 C 280.214844 4.148438 280.269531 4.429688 280.296875 4.71875 C 280.320312 5.007812 280.320312 5.292969 280.289062 5.582031 C 280.261719 5.871094 280.203125 6.152344 280.117188 6.425781 C 280.03125 6.703125 279.917969 6.96875 279.78125 7.222656 Z M 279.78125 7.222656 " fill-opacity="1" fill-rule="nonzero"/></g></g><g clip-path="url(#bc4fe86525)"><g clip-path="url(#f9c8020483)"><path fill="#d9d9d9" d="M 580.234375 88.296875 L 521.21875 65.226562 L 551.992188 49.371094 L 535.351562 25.324219 L 479.441406 43.996094 L 479.886719 72.847656 L 459.132812 49.789062 L 478.761719 43.269531 L 478.402344 28.765625 L 540.019531 3.53125 L 538.535156 -19.449219 L 480.625 -8.296875 L 466.097656 13.867188 L 444.054688 -25.273438 L 448.550781 21.15625 L 447.421875 21.261719 L 442.386719 -30.113281 L 466.167969 11.757812 L 480.097656 -9.300781 L 480.375 -9.152344 L 539.136719 -20.554688 L 540.976562 4.410156 L 540.546875 4.535156 L 479.210938 29.917969 L 479.464844 43.292969 L 535.800781 24.492188 L 553.652344 50.269531 L 523.878906 65.59375 L 580.535156 87.746094 Z M 460.664062 50.261719 L 478.574219 69.992188 L 478.164062 44.375 Z M 460.664062 50.261719 " fill-opacity="1" fill-rule="nonzero"/></g></g><g clip-path="url(#8bf52660ed)"><g clip-path="url(#da7a7a0cc4)"><path fill="#d9d9d9" d="M 429.125 51.035156 L 383.40625 38.394531 L 384.003906 37.289062 L 427.214844 49.285156 L 417.816406 31.667969 L 389.546875 14.546875 L 355.84375 0.195312 L 356.292969 -0.632812 L 389.996094 13.714844 L 418.542969 30.988281 Z M 429.125 51.035156 " fill-opacity="1" fill-rule="nonzero"/></g></g><g clip-path="url(#bf8ea6b892)"><g clip-path="url(#37a5074d89)"><path fill="#d9d9d9" d="M 405.789062 71.640625 L 366.976562 62.746094 L 367.148438 61.769531 L 405.410156 70.363281 L 428.042969 49.734375 L 459.28125 49.511719 L 465.894531 11.609375 L 478.578125 27.789062 L 479.796875 -8.746094 L 480.925781 -8.851562 L 479.613281 30.496094 L 466.375 14.015625 L 460.085938 50.664062 L 428.574219 50.738281 Z M 405.789062 71.640625 " fill-opacity="1" fill-rule="nonzero"/></g></g><g clip-path="url(#c7122705a6)"><g clip-path="url(#ad1d309d2b)"><path fill="#d9d9d9" d="M 535.578125 24.480469 L 562.726562 19.140625 L 562.90625 20.066406 L 535.761719 25.40625 Z M 535.578125 24.480469 " fill-opacity="1" fill-rule="nonzero"/></g></g><g clip-path="url(#544ef0c9cb)"><g clip-path="url(#13d6ce1d9d)"><path fill="#d9d9d9" d="M 504.761719 119.960938 L 464.542969 111.023438 L 455.226562 128.859375 L 420.820312 127.007812 L 415.074219 105.292969 L 398.378906 112.332031 L 387.167969 81.570312 L 380.109375 99.199219 L 348.421875 79.148438 L 342.523438 24.089844 L 366.171875 61.59375 L 427.066406 49.5625 L 436.378906 40.304688 L 417.113281 31.644531 L 382.425781 38.222656 L 382.148438 38.074219 L 354.585938 -0.128906 L 354.738281 -0.402344 L 372.335938 -38.785156 L 372.992188 -37.355469 L 373.140625 -37.632812 L 395.648438 -16.480469 L 429.820312 4.917969 L 441.761719 -28.304688 L 479.117188 -9.472656 L 506.710938 -56.382812 L 538.410156 -19.875 L 479.957031 28.539062 L 536.230469 24.367188 L 479.957031 70.742188 L 524.203125 64.339844 L 454.269531 106.882812 L 453.996094 106.730469 C 453.996094 106.730469 441.203125 98.003906 428.964844 89.578125 C 403.65625 72.273438 403.679688 71.570312 403.832031 71.292969 L 403.980469 71.015625 L 404.40625 70.890625 C 405.257812 70.636719 439.328125 57.285156 458.003906 49.890625 L 438.183594 40.929688 L 428.296875 50.585938 L 366.550781 62.875 L 344.765625 28.523438 L 350.128906 78.644531 L 380.304688 97.519531 L 387.6875 78.632812 L 399.554688 110.820312 L 416.402344 103.507812 L 421.996094 125.5 L 454.996094 127.304688 L 464.3125 109.46875 L 504.105469 118.535156 L 511.058594 87.253906 L 511.484375 87.128906 L 579.582031 86.867188 L 552.441406 48.542969 L 552.59375 48.265625 L 562.585938 18.636719 L 539.871094 3.808594 L 564.859375 -28.414062 L 565.539062 -27.691406 L 541.425781 3.578125 L 563.589844 18.105469 L 563.4375 18.382812 L 553.722656 48.164062 L 581.664062 87.640625 L 512.164062 87.851562 Z M 405.9375 71.363281 C 409.910156 74.589844 436.726562 93.070312 455.019531 105.5 L 520.066406 66.03125 L 477.226562 72.476562 L 533.648438 25.828125 L 477.378906 30 L 537.707031 -19.898438 L 507.769531 -54.378906 L 480.476562 -8.023438 L 443.398438 -26.703125 L 431.304688 6.796875 L 396.027344 -15.203125 L 374.199219 -35.625 L 390.125 14.140625 L 447.445312 20.558594 L 468.578125 11.277344 L 439.1875 40.398438 L 461.089844 50.132812 L 459.8125 50.515625 C 457.957031 51.296875 412.480469 69.191406 405.9375 71.363281 Z M 384.003906 37.289062 L 418.414062 30.5625 L 438.507812 39.671875 L 464.117188 14.222656 L 447.976562 21.5625 L 389.398438 14.820312 L 373.222656 -35.800781 L 356.695312 -0.0585938 Z M 384.003906 37.289062 " fill-opacity="1" fill-rule="nonzero"/></g></g><g clip-path="url(#275c6025a1)"><g clip-path="url(#f22f8941da)"><path fill="#d9d9d9" d="M 432.03125 6.117188 L 389.398438 14.820312 L 389.144531 13.96875 L 430.652344 5.367188 L 417.621094 -29.957031 L 397.03125 -15.730469 L 396.351562 -16.457031 L 417.820312 -31.636719 Z M 432.03125 6.117188 " fill-opacity="1" fill-rule="nonzero"/></g></g><g clip-path="url(#3eba800392)"><g clip-path="url(#36eeab5d9d)"><path fill="#d9d9d9" d="M 430.902344 6.171875 L 431.542969 5.480469 L 447.9375 20.628906 L 447.296875 21.324219 Z M 430.902344 6.171875 " fill-opacity="1" fill-rule="nonzero"/></g></g><g clip-path="url(#88670a27ec)"><g clip-path="url(#cb77d915a1)"><path fill="#d9d9d9" d="M 367.402344 62.621094 L 366.574219 62.171875 L 382.851562 38.097656 L 344.113281 27.097656 L 331.566406 -5.820312 L 356.015625 -0.78125 L 355.84375 0.195312 L 333.074219 -4.644531 L 344.988281 26.140625 L 384.558594 37.589844 Z M 367.402344 62.621094 " fill-opacity="1" fill-rule="nonzero"/></g></g><g clip-path="url(#f418ea6680)"><g clip-path="url(#ccc2401573)"><path fill="#004aad" d="M 537.414062 26.796875 C 537.277344 27.050781 537.113281 27.289062 536.929688 27.511719 C 536.746094 27.734375 536.539062 27.9375 536.316406 28.117188 C 536.089844 28.300781 535.851562 28.460938 535.59375 28.59375 C 535.339844 28.730469 535.074219 28.835938 534.796875 28.917969 C 534.519531 29 534.238281 29.054688 533.949219 29.082031 C 533.660156 29.109375 533.375 29.105469 533.085938 29.078125 C 532.796875 29.046875 532.515625 28.988281 532.242188 28.902344 C 531.964844 28.816406 531.699219 28.707031 531.445312 28.570312 C 531.191406 28.429688 530.953125 28.269531 530.730469 28.085938 C 530.507812 27.898438 530.308594 27.695312 530.125 27.472656 C 529.941406 27.246094 529.785156 27.007812 529.648438 26.75 C 529.515625 26.496094 529.40625 26.226562 529.324219 25.953125 C 529.242188 25.675781 529.1875 25.390625 529.160156 25.105469 C 529.136719 24.816406 529.136719 24.527344 529.167969 24.242188 C 529.195312 23.953125 529.253906 23.671875 529.339844 23.394531 C 529.425781 23.121094 529.539062 22.855469 529.675781 22.601562 C 529.8125 22.347656 529.976562 22.109375 530.160156 21.886719 C 530.34375 21.664062 530.546875 21.460938 530.773438 21.28125 C 530.996094 21.097656 531.238281 20.941406 531.492188 20.804688 C 531.75 20.671875 532.015625 20.5625 532.292969 20.480469 C 532.570312 20.398438 532.851562 20.34375 533.140625 20.316406 C 533.429688 20.289062 533.714844 20.292969 534.003906 20.320312 C 534.289062 20.351562 534.570312 20.410156 534.847656 20.496094 C 535.125 20.582031 535.390625 20.691406 535.644531 20.832031 C 535.898438 20.96875 536.136719 21.128906 536.359375 21.3125 C 536.578125 21.5 536.78125 21.703125 536.964844 21.929688 C 537.144531 22.152344 537.304688 22.394531 537.4375 22.648438 C 537.574219 22.902344 537.683594 23.171875 537.765625 23.449219 C 537.847656 23.726562 537.902344 24.007812 537.925781 24.296875 C 537.953125 24.582031 537.953125 24.871094 537.921875 25.15625 C 537.890625 25.445312 537.835938 25.726562 537.75 26.003906 C 537.664062 26.277344 537.550781 26.542969 537.414062 26.796875 Z M 537.414062 26.796875 " fill-opacity="1" fill-rule="nonzero"/></g></g><g clip-path="url(#b3f03fdc1c)"><g clip-path="url(#acdc5c1046)"><path fill="#004aad" d="M 393.417969 16.644531 C 393.277344 16.898438 393.117188 17.136719 392.933594 17.359375 C 392.75 17.582031 392.542969 17.78125 392.320312 17.964844 C 392.09375 18.148438 391.855469 18.304688 391.597656 18.441406 C 391.34375 18.574219 391.078125 18.683594 390.800781 18.765625 C 390.523438 18.847656 390.238281 18.902344 389.953125 18.929688 C 389.664062 18.953125 389.375 18.953125 389.089844 18.921875 C 388.800781 18.894531 388.519531 18.835938 388.242188 18.75 C 387.96875 18.664062 387.703125 18.550781 387.449219 18.414062 C 387.195312 18.277344 386.957031 18.113281 386.734375 17.929688 C 386.511719 17.746094 386.308594 17.542969 386.128906 17.316406 C 385.945312 17.09375 385.789062 16.851562 385.652344 16.597656 C 385.519531 16.339844 385.410156 16.074219 385.328125 15.796875 C 385.246094 15.519531 385.191406 15.238281 385.164062 14.949219 C 385.136719 14.660156 385.140625 14.375 385.171875 14.085938 C 385.199219 13.800781 385.257812 13.519531 385.34375 13.242188 C 385.429688 12.964844 385.539062 12.699219 385.679688 12.445312 C 385.816406 12.191406 385.976562 11.953125 386.164062 11.730469 C 386.347656 11.511719 386.550781 11.308594 386.777344 11.125 C 387 10.945312 387.242188 10.785156 387.496094 10.652344 C 387.753906 10.515625 388.019531 10.40625 388.296875 10.324219 C 388.574219 10.242188 388.855469 10.1875 389.144531 10.164062 C 389.429688 10.136719 389.71875 10.136719 390.007812 10.167969 C 390.292969 10.199219 390.574219 10.253906 390.851562 10.339844 C 391.128906 10.425781 391.390625 10.539062 391.644531 10.675781 C 391.902344 10.8125 392.136719 10.976562 392.359375 11.160156 C 392.582031 11.34375 392.785156 11.550781 392.96875 11.773438 C 393.148438 12 393.308594 12.238281 393.441406 12.496094 C 393.578125 12.75 393.683594 13.015625 393.765625 13.292969 C 393.847656 13.570312 393.902344 13.851562 393.929688 14.140625 C 393.957031 14.429688 393.957031 14.714844 393.925781 15.003906 C 393.894531 15.292969 393.835938 15.574219 393.75 15.847656 C 393.667969 16.125 393.554688 16.390625 393.417969 16.644531 Z M 393.417969 16.644531 " fill-opacity="1" fill-rule="nonzero"/></g></g><g clip-path="url(#15bdaceee6)"><g clip-path="url(#f0155b13b9)"><path fill="#004aad" d="M 350.363281 29.414062 C 350.226562 29.667969 350.066406 29.90625 349.878906 30.128906 C 349.695312 30.351562 349.492188 30.554688 349.265625 30.734375 C 349.042969 30.917969 348.800781 31.074219 348.546875 31.210938 C 348.289062 31.34375 348.023438 31.453125 347.746094 31.535156 C 347.46875 31.617188 347.1875 31.671875 346.898438 31.699219 C 346.613281 31.726562 346.324219 31.722656 346.039062 31.695312 C 345.75 31.664062 345.46875 31.605469 345.191406 31.519531 C 344.917969 31.433594 344.652344 31.324219 344.398438 31.183594 C 344.144531 31.046875 343.90625 30.886719 343.683594 30.703125 C 343.460938 30.515625 343.257812 30.3125 343.074219 30.085938 C 342.894531 29.863281 342.734375 29.621094 342.601562 29.367188 C 342.464844 29.113281 342.359375 28.84375 342.277344 28.566406 C 342.195312 28.289062 342.140625 28.007812 342.113281 27.71875 C 342.085938 27.433594 342.089844 27.144531 342.117188 26.859375 C 342.148438 26.570312 342.207031 26.289062 342.292969 26.011719 C 342.378906 25.738281 342.488281 25.472656 342.625 25.21875 C 342.765625 24.964844 342.925781 24.726562 343.109375 24.503906 C 343.296875 24.28125 343.5 24.078125 343.722656 23.898438 C 343.949219 23.714844 344.1875 23.554688 344.445312 23.421875 C 344.699219 23.285156 344.96875 23.179688 345.242188 23.097656 C 345.519531 23.015625 345.804688 22.960938 346.089844 22.933594 C 346.378906 22.90625 346.667969 22.910156 346.953125 22.9375 C 347.242188 22.96875 347.523438 23.027344 347.800781 23.113281 C 348.074219 23.199219 348.339844 23.308594 348.59375 23.449219 C 348.847656 23.585938 349.085938 23.746094 349.308594 23.929688 C 349.53125 24.117188 349.734375 24.320312 349.914062 24.542969 C 350.097656 24.769531 350.253906 25.007812 350.390625 25.265625 C 350.523438 25.519531 350.632812 25.789062 350.714844 26.0625 C 350.796875 26.339844 350.851562 26.625 350.878906 26.910156 C 350.90625 27.199219 350.902344 27.488281 350.875 27.773438 C 350.84375 28.0625 350.785156 28.34375 350.699219 28.621094 C 350.613281 28.894531 350.503906 29.160156 350.363281 29.414062 Z M 350.363281 29.414062 " fill-opacity="1" fill-rule="nonzero"/></g></g><g clip-path="url(#7414ada057)"><g clip-path="url(#20ee49f469)"><path fill="#004aad" d="M 451.238281 20.824219 C 451.097656 21.078125 450.9375 21.316406 450.753906 21.539062 C 450.566406 21.761719 450.363281 21.964844 450.140625 22.144531 C 449.914062 22.328125 449.675781 22.488281 449.417969 22.621094 C 449.164062 22.757812 448.894531 22.863281 448.621094 22.945312 C 448.34375 23.027344 448.058594 23.082031 447.773438 23.109375 C 447.484375 23.136719 447.195312 23.132812 446.910156 23.105469 C 446.621094 23.074219 446.339844 23.015625 446.0625 22.929688 C 445.789062 22.84375 445.523438 22.734375 445.269531 22.597656 C 445.015625 22.457031 444.777344 22.296875 444.554688 22.113281 C 444.332031 21.925781 444.128906 21.722656 443.949219 21.5 C 443.765625 21.273438 443.609375 21.035156 443.472656 20.777344 C 443.339844 20.523438 443.230469 20.253906 443.148438 19.980469 C 443.066406 19.703125 443.011719 19.417969 442.984375 19.132812 C 442.957031 18.84375 442.960938 18.554688 442.988281 18.269531 C 443.019531 17.980469 443.078125 17.699219 443.164062 17.421875 C 443.25 17.148438 443.359375 16.882812 443.5 16.628906 C 443.636719 16.375 443.796875 16.136719 443.980469 15.914062 C 444.167969 15.691406 444.371094 15.488281 444.597656 15.308594 C 444.820312 15.125 445.0625 14.96875 445.316406 14.832031 C 445.574219 14.699219 445.839844 14.589844 446.117188 14.507812 C 446.394531 14.425781 446.675781 14.371094 446.964844 14.34375 C 447.25 14.316406 447.539062 14.320312 447.824219 14.347656 C 448.113281 14.378906 448.394531 14.4375 448.671875 14.523438 C 448.945312 14.609375 449.210938 14.71875 449.464844 14.859375 C 449.71875 14.996094 449.957031 15.15625 450.179688 15.339844 C 450.402344 15.527344 450.605469 15.730469 450.785156 15.957031 C 450.96875 16.179688 451.128906 16.421875 451.261719 16.675781 C 451.398438 16.933594 451.503906 17.199219 451.585938 17.476562 C 451.667969 17.753906 451.722656 18.035156 451.75 18.324219 C 451.777344 18.609375 451.773438 18.898438 451.746094 19.183594 C 451.714844 19.472656 451.65625 19.753906 451.570312 20.03125 C 451.484375 20.304688 451.375 20.570312 451.238281 20.824219 Z M 451.238281 20.824219 " fill-opacity="1" fill-rule="nonzero"/></g></g><g clip-path="url(#5ebad157ea)"><g clip-path="url(#b759cffaec)"><path fill="#004aad" d="M 433.96875 7.164062 C 433.769531 7.53125 433.507812 7.847656 433.183594 8.109375 C 432.859375 8.371094 432.496094 8.5625 432.097656 8.679688 C 431.699219 8.800781 431.289062 8.835938 430.875 8.792969 C 430.460938 8.75 430.070312 8.628906 429.703125 8.429688 C 429.339844 8.230469 429.023438 7.96875 428.761719 7.644531 C 428.5 7.324219 428.308594 6.960938 428.1875 6.5625 C 428.070312 6.160156 428.035156 5.753906 428.078125 5.339844 C 428.121094 4.925781 428.242188 4.535156 428.441406 4.167969 C 428.640625 3.800781 428.898438 3.488281 429.222656 3.222656 C 429.546875 2.960938 429.910156 2.769531 430.308594 2.652344 C 430.710938 2.535156 431.117188 2.496094 431.53125 2.539062 C 431.945312 2.582031 432.335938 2.703125 432.703125 2.902344 C 433.070312 3.101562 433.382812 3.363281 433.644531 3.6875 C 433.910156 4.011719 434.097656 4.371094 434.21875 4.773438 C 434.335938 5.171875 434.375 5.578125 434.332031 5.996094 C 434.285156 6.410156 434.164062 6.800781 433.96875 7.164062 Z M 433.96875 7.164062 " fill-opacity="1" fill-rule="nonzero"/></g></g><g clip-path="url(#95f2009233)"><g clip-path="url(#9667f204dd)"><path fill="#004aad" d="M 421.132812 33.464844 C 420.933594 33.832031 420.671875 34.148438 420.347656 34.410156 C 420.023438 34.671875 419.660156 34.863281 419.261719 34.980469 C 418.863281 35.101562 418.453125 35.136719 418.039062 35.09375 C 417.625 35.050781 417.234375 34.929688 416.867188 34.730469 C 416.503906 34.53125 416.1875 34.269531 415.925781 33.945312 C 415.664062 33.621094 415.472656 33.261719 415.355469 32.859375 C 415.234375 32.460938 415.199219 32.054688 415.242188 31.640625 C 415.285156 31.226562 415.40625 30.835938 415.605469 30.46875 C 415.804688 30.101562 416.0625 29.785156 416.386719 29.523438 C 416.710938 29.261719 417.074219 29.070312 417.472656 28.953125 C 417.875 28.835938 418.28125 28.796875 418.695312 28.839844 C 419.109375 28.882812 419.5 29.003906 419.867188 29.203125 C 420.234375 29.402344 420.546875 29.664062 420.808594 29.988281 C 421.074219 30.3125 421.261719 30.671875 421.382812 31.074219 C 421.5 31.472656 421.539062 31.878906 421.496094 32.292969 C 421.449219 32.710938 421.328125 33.097656 421.132812 33.464844 Z M 421.132812 33.464844 " fill-opacity="1" fill-rule="nonzero"/></g></g><g clip-path="url(#5d1af743e3)"><g clip-path="url(#63681d79a5)"><path fill="#004aad" d="M 468.761719 14.234375 C 468.5625 14.601562 468.300781 14.917969 467.976562 15.179688 C 467.652344 15.441406 467.289062 15.632812 466.890625 15.75 C 466.492188 15.871094 466.082031 15.90625 465.667969 15.863281 C 465.253906 15.820312 464.863281 15.699219 464.496094 15.5 C 464.132812 15.300781 463.816406 15.039062 463.554688 14.714844 C 463.292969 14.394531 463.101562 14.03125 462.980469 13.632812 C 462.863281 13.230469 462.824219 12.824219 462.871094 12.410156 C 462.914062 11.996094 463.035156 11.605469 463.234375 11.238281 C 463.429688 10.871094 463.691406 10.558594 464.015625 10.292969 C 464.339844 10.03125 464.703125 9.839844 465.101562 9.722656 C 465.503906 9.605469 465.910156 9.566406 466.324219 9.609375 C 466.738281 9.652344 467.128906 9.773438 467.496094 9.972656 C 467.863281 10.171875 468.175781 10.433594 468.4375 10.757812 C 468.703125 11.082031 468.890625 11.441406 469.011719 11.84375 C 469.128906 12.242188 469.167969 12.648438 469.125 13.0625 C 469.078125 13.480469 468.957031 13.871094 468.761719 14.234375 Z M 468.761719 14.234375 " fill-opacity="1" fill-rule="nonzero"/></g></g><g clip-path="url(#b9e001a025)"><g clip-path="url(#e6a66dbbe9)"><path fill="#004aad" d="M 481.292969 30.691406 C 481.09375 31.058594 480.832031 31.371094 480.507812 31.636719 C 480.183594 31.898438 479.824219 32.089844 479.425781 32.207031 C 479.023438 32.324219 478.617188 32.363281 478.203125 32.320312 C 477.789062 32.277344 477.398438 32.15625 477.03125 31.957031 C 476.664062 31.757812 476.351562 31.496094 476.085938 31.171875 C 475.824219 30.847656 475.632812 30.488281 475.515625 30.085938 C 475.398438 29.6875 475.359375 29.28125 475.402344 28.867188 C 475.445312 28.449219 475.566406 28.058594 475.765625 27.695312 C 475.964844 27.328125 476.226562 27.011719 476.550781 26.75 C 476.875 26.488281 477.234375 26.296875 477.636719 26.179688 C 478.035156 26.058594 478.441406 26.023438 478.855469 26.066406 C 479.273438 26.109375 479.664062 26.230469 480.027344 26.429688 C 480.394531 26.628906 480.710938 26.890625 480.972656 27.214844 C 481.234375 27.539062 481.425781 27.898438 481.542969 28.296875 C 481.664062 28.699219 481.699219 29.105469 481.65625 29.519531 C 481.613281 29.933594 481.492188 30.324219 481.292969 30.691406 Z M 481.292969 30.691406 " fill-opacity="1" fill-rule="nonzero"/></g></g><g clip-path="url(#95fef92a24)"><g clip-path="url(#001fb455a1)"><path fill="#004aad" d="M 385.917969 39.042969 C 385.71875 39.410156 385.457031 39.722656 385.132812 39.984375 C 384.808594 40.25 384.445312 40.4375 384.046875 40.558594 C 383.648438 40.675781 383.238281 40.714844 382.824219 40.671875 C 382.410156 40.628906 382.019531 40.507812 381.652344 40.308594 C 381.285156 40.109375 380.972656 39.847656 380.710938 39.523438 C 380.449219 39.199219 380.257812 38.835938 380.136719 38.4375 C 380.019531 38.039062 379.980469 37.628906 380.027344 37.214844 C 380.070312 36.800781 380.191406 36.410156 380.390625 36.042969 C 380.585938 35.679688 380.847656 35.363281 381.171875 35.101562 C 381.496094 34.839844 381.859375 34.648438 382.257812 34.53125 C 382.65625 34.410156 383.066406 34.375 383.480469 34.417969 C 383.894531 34.460938 384.285156 34.582031 384.652344 34.78125 C 385.019531 34.980469 385.332031 35.242188 385.59375 35.5625 C 385.859375 35.886719 386.046875 36.25 386.167969 36.648438 C 386.285156 37.050781 386.324219 37.457031 386.28125 37.871094 C 386.234375 38.285156 386.113281 38.675781 385.917969 39.042969 Z M 385.917969 39.042969 " fill-opacity="1" fill-rule="nonzero"/></g></g><g clip-path="url(#87bf6b8030)"><g clip-path="url(#0e2c4c9c2e)"><path fill="#004aad" d="M 542.933594 4.753906 C 542.734375 5.121094 542.472656 5.4375 542.148438 5.699219 C 541.824219 5.960938 541.460938 6.152344 541.0625 6.269531 C 540.664062 6.390625 540.257812 6.425781 539.839844 6.382812 C 539.425781 6.339844 539.035156 6.21875 538.671875 6.019531 C 538.304688 5.820312 537.988281 5.558594 537.726562 5.234375 C 537.464844 4.910156 537.273438 4.550781 537.15625 4.148438 C 537.035156 3.75 537 3.34375 537.042969 2.929688 C 537.085938 2.515625 537.207031 2.125 537.40625 1.757812 C 537.605469 1.390625 537.867188 1.078125 538.191406 0.8125 C 538.511719 0.550781 538.875 0.359375 539.273438 0.242188 C 539.675781 0.125 540.082031 0.0859375 540.496094 0.128906 C 540.910156 0.171875 541.300781 0.292969 541.667969 0.492188 C 542.035156 0.691406 542.347656 0.953125 542.613281 1.277344 C 542.875 1.601562 543.066406 1.960938 543.183594 2.363281 C 543.300781 2.761719 543.339844 3.167969 543.296875 3.582031 C 543.253906 4 543.132812 4.390625 542.933594 4.753906 Z M 542.933594 4.753906 " fill-opacity="1" fill-rule="nonzero"/></g></g><g clip-path="url(#8673271baf)"><g clip-path="url(#8c5a550a45)"><path fill="#004aad" d="M 358.882812 1.84375 C 358.683594 2.210938 358.421875 2.527344 358.097656 2.789062 C 357.773438 3.050781 357.410156 3.242188 357.011719 3.359375 C 356.613281 3.476562 356.207031 3.515625 355.789062 3.472656 C 355.375 3.429688 354.984375 3.308594 354.621094 3.109375 C 354.253906 2.910156 353.9375 2.648438 353.675781 2.324219 C 353.414062 2 353.222656 1.640625 353.105469 1.238281 C 352.984375 0.839844 352.949219 0.433594 352.992188 0.0195312 C 353.035156 -0.394531 353.15625 -0.785156 353.355469 -1.152344 C 353.554688 -1.519531 353.816406 -1.835938 354.140625 -2.097656 C 354.460938 -2.359375 354.824219 -2.550781 355.222656 -2.667969 C 355.625 -2.785156 356.03125 -2.824219 356.445312 -2.78125 C 356.859375 -2.738281 357.25 -2.617188 357.617188 -2.417969 C 357.984375 -2.21875 358.296875 -1.957031 358.5625 -1.632812 C 358.824219 -1.308594 359.015625 -0.949219 359.132812 -0.546875 C 359.25 -0.148438 359.289062 0.257812 359.246094 0.671875 C 359.203125 1.089844 359.082031 1.476562 358.882812 1.84375 Z M 358.882812 1.84375 " fill-opacity="1" fill-rule="nonzero"/></g></g><g clip-path="url(#22d33c8da4)"><g clip-path="url(#7746d352fa)"><path fill="#d9d9d9" d="M 230.535156 129.65625 L 171.519531 106.582031 L 202.292969 90.730469 L 185.652344 66.679688 L 129.742188 85.351562 L 130.183594 114.207031 L 109.429688 91.144531 L 129.0625 84.625 L 128.703125 70.125 L 190.320312 44.890625 L 188.835938 21.910156 L 130.925781 33.058594 L 116.398438 55.222656 L 94.351562 16.082031 L 98.851562 62.515625 L 97.722656 62.621094 L 92.960938 11.394531 L 116.746094 53.265625 L 130.671875 32.207031 L 130.949219 32.359375 L 189.433594 20.804688 L 191.273438 45.765625 L 190.847656 45.894531 L 129.507812 71.277344 L 129.765625 84.648438 L 186.101562 65.851562 L 203.949219 91.628906 L 174.179688 106.953125 L 230.835938 129.101562 Z M 110.964844 91.617188 L 128.875 111.347656 L 128.464844 85.730469 Z M 110.964844 91.617188 " fill-opacity="1" fill-rule="nonzero"/></g></g><g clip-path="url(#134a2c083c)"><g clip-path="url(#d8d101fd9a)"><path fill="#d9d9d9" d="M 56.089844 113 L 17.277344 104.105469 L 17.449219 103.128906 L 55.707031 111.71875 L 78.34375 91.09375 L 109.582031 90.871094 L 116.191406 52.964844 L 128.875 69.144531 L 130.097656 32.609375 L 131.226562 32.507812 L 129.910156 71.851562 L 116.675781 55.375 L 110.386719 92.023438 L 78.871094 92.09375 Z M 56.089844 113 " fill-opacity="1" fill-rule="nonzero"/></g></g><g clip-path="url(#41a77701e0)"><g clip-path="url(#d1706a8d05)"><path fill="#d9d9d9" d="M 155.058594 161.320312 L 114.84375 152.382812 L 105.523438 170.21875 L 71.121094 168.363281 L 65.375 146.648438 L 48.679688 153.6875 L 37.46875 122.929688 L 30.410156 140.558594 L -0.574219 120.53125 L -6.472656 65.46875 L 17.171875 102.976562 L 78.066406 90.941406 L 87.378906 81.6875 L 68.113281 73.027344 L 33.429688 79.605469 L 33.152344 79.453125 L 5.589844 41.253906 L 5.738281 40.976562 L 23.339844 2.597656 L 23.996094 4.027344 L 24.144531 3.75 L 46.648438 24.898438 L 80.824219 46.300781 L 92.765625 13.074219 L 130.121094 31.90625 L 157.710938 -15 L 189.410156 21.507812 L 130.960938 69.917969 L 187.230469 65.75 L 130.957031 112.121094 L 175.203125 105.722656 L 105.273438 148.261719 L 104.996094 148.113281 C 104.996094 148.113281 92.207031 139.386719 79.964844 130.957031 C 54.660156 113.65625 54.683594 112.953125 54.832031 112.675781 L 54.984375 112.398438 L 55.410156 112.273438 C 56.261719 112.019531 90.328125 98.667969 109.003906 91.273438 L 89.1875 82.3125 L 79.300781 91.96875 L 17.554688 104.253906 L -4.230469 69.90625 L 1.128906 120.027344 L 31.308594 138.898438 L 38.691406 120.015625 L 50.558594 152.203125 L 67.402344 144.886719 L 73 166.878906 L 106 168.6875 L 115.316406 150.847656 L 155.105469 159.914062 L 162.058594 128.636719 L 162.484375 128.507812 L 230.582031 128.25 L 203.445312 89.925781 L 203.59375 89.648438 L 213.589844 60.015625 L 190.871094 45.191406 L 215.863281 12.964844 L 216.542969 13.691406 L 192.425781 44.960938 L 214.589844 59.488281 L 214.441406 59.765625 L 204.722656 89.542969 L 232.667969 129.023438 L 163.164062 129.234375 Z M 56.238281 112.722656 C 60.210938 115.949219 87.023438 134.429688 105.320312 146.859375 L 170.367188 107.390625 L 127.523438 113.835938 L 183.945312 67.1875 L 127.675781 71.355469 L 188.007812 21.460938 L 158.066406 -13.019531 L 130.625 33.613281 L 93.546875 14.929688 L 81.457031 48.429688 L 46.175781 26.433594 L 24.351562 6.007812 L 40.273438 55.777344 L 97.597656 62.191406 L 118.726562 52.910156 L 89.335938 82.035156 L 111.238281 91.769531 L 109.960938 92.148438 C 108.253906 92.652344 62.78125 110.550781 56.238281 112.722656 Z M 34.304688 78.648438 L 68.714844 71.921875 L 88.808594 81.03125 L 114.417969 55.582031 L 98.277344 62.917969 L 40.125 56.054688 L 23.949219 5.433594 L 7.421875 41.175781 Z M 34.304688 78.648438 " fill-opacity="1" fill-rule="nonzero"/></g></g><g clip-path="url(#be002f1d0f)"><g clip-path="url(#65c367b052)"><path fill="#d9d9d9" d="M 95.933594 15.152344 L 22.011719 4.382812 L 75.515625 -13.808594 Z M 26.527344 3.96875 L 93.722656 13.953125 L 75.191406 -12.550781 Z M 26.527344 3.96875 " fill-opacity="1" fill-rule="nonzero"/></g></g><g clip-path="url(#88da68c070)"><g clip-path="url(#2ee999dfbe)"><path fill="#d9d9d9" d="M 82.332031 47.476562 L 39.695312 56.179688 L 39.445312 55.328125 L 80.949219 46.726562 L 67.921875 11.402344 L 47.328125 25.625 L 46.648438 24.898438 L 68.394531 9.871094 Z M 82.332031 47.476562 " fill-opacity="1" fill-rule="nonzero"/></g></g><g clip-path="url(#e4c318830a)"><g clip-path="url(#9ea868f378)"><path fill="#d9d9d9" d="M 216.667969 14.117188 L 188.984375 21.632812 L 188.730469 20.78125 L 213.582031 13.875 L 158.089844 -13.722656 L 93.722656 13.953125 L 93.46875 13.097656 L 158.265625 -14.703125 Z M 216.667969 14.117188 " fill-opacity="1" fill-rule="nonzero"/></g></g><g clip-path="url(#2bd56283b8)"><g clip-path="url(#2618a5fafe)"><path fill="#004aad" d="M 27.714844 6.402344 C 27.574219 6.65625 27.414062 6.894531 27.230469 7.117188 C 27.046875 7.339844 26.839844 7.539062 26.617188 7.722656 C 26.390625 7.90625 26.152344 8.0625 25.894531 8.199219 C 25.640625 8.332031 25.375 8.441406 25.097656 8.523438 C 24.820312 8.605469 24.535156 8.660156 24.25 8.6875 C 23.960938 8.710938 23.671875 8.710938 23.386719 8.679688 C 23.097656 8.652344 22.816406 8.59375 22.542969 8.507812 C 22.265625 8.421875 22 8.308594 21.746094 8.171875 C 21.492188 8.035156 21.253906 7.871094 21.03125 7.6875 C 20.808594 7.503906 20.605469 7.296875 20.425781 7.074219 C 20.242188 6.851562 20.085938 6.609375 19.949219 6.355469 C 19.816406 6.097656 19.707031 5.832031 19.625 5.554688 C 19.542969 5.277344 19.488281 4.996094 19.460938 4.707031 C 19.433594 4.417969 19.4375 4.132812 19.46875 3.84375 C 19.496094 3.558594 19.554688 3.277344 19.640625 3 C 19.726562 2.722656 19.839844 2.457031 19.976562 2.203125 C 20.113281 1.949219 20.273438 1.710938 20.460938 1.488281 C 20.644531 1.265625 20.847656 1.066406 21.074219 0.882812 C 21.296875 0.703125 21.539062 0.542969 21.792969 0.410156 C 22.050781 0.273438 22.316406 0.164062 22.59375 0.0820312 C 22.871094 0 23.152344 -0.0546875 23.441406 -0.078125 C 23.726562 -0.105469 24.015625 -0.105469 24.304688 -0.0742188 C 24.589844 -0.0429688 24.871094 0.0117188 25.148438 0.0976562 C 25.425781 0.183594 25.6875 0.296875 25.945312 0.433594 C 26.199219 0.570312 26.4375 0.734375 26.65625 0.917969 C 26.878906 1.101562 27.082031 1.308594 27.265625 1.53125 C 27.445312 1.757812 27.605469 1.996094 27.738281 2.253906 C 27.875 2.507812 27.980469 2.773438 28.0625 3.050781 C 28.148438 3.328125 28.199219 3.609375 28.226562 3.898438 C 28.253906 4.1875 28.253906 4.472656 28.222656 4.761719 C 28.191406 5.046875 28.132812 5.332031 28.046875 5.605469 C 27.964844 5.882812 27.851562 6.148438 27.714844 6.402344 Z M 27.714844 6.402344 " fill-opacity="1" fill-rule="nonzero"/></g></g><g clip-path="url(#c7a5900912)"><g clip-path="url(#adef1cc677)"><path fill="#004aad" d="M 98.246094 17.480469 C 98.109375 17.734375 97.945312 17.972656 97.761719 18.195312 C 97.578125 18.414062 97.371094 18.617188 97.148438 18.800781 C 96.921875 18.980469 96.683594 19.140625 96.425781 19.273438 C 96.171875 19.410156 95.90625 19.519531 95.628906 19.601562 C 95.351562 19.683594 95.070312 19.738281 94.78125 19.761719 C 94.492188 19.789062 94.207031 19.789062 93.917969 19.757812 C 93.632812 19.726562 93.347656 19.667969 93.074219 19.585938 C 92.796875 19.5 92.53125 19.386719 92.277344 19.25 C 92.023438 19.113281 91.785156 18.949219 91.5625 18.765625 C 91.339844 18.582031 91.140625 18.375 90.957031 18.152344 C 90.773438 17.925781 90.617188 17.6875 90.480469 17.429688 C 90.347656 17.175781 90.238281 16.910156 90.15625 16.632812 C 90.074219 16.355469 90.019531 16.074219 89.992188 15.785156 C 89.96875 15.496094 89.96875 15.210938 90 14.921875 C 90.027344 14.632812 90.085938 14.351562 90.171875 14.078125 C 90.257812 13.800781 90.371094 13.535156 90.507812 13.28125 C 90.644531 13.027344 90.808594 12.789062 90.992188 12.566406 C 91.175781 12.34375 91.378906 12.144531 91.605469 11.960938 C 91.828125 11.777344 92.070312 11.621094 92.324219 11.484375 C 92.582031 11.351562 92.847656 11.242188 93.125 11.160156 C 93.402344 11.078125 93.683594 11.023438 93.972656 10.996094 C 94.261719 10.972656 94.546875 10.972656 94.835938 11.003906 C 95.121094 11.03125 95.402344 11.089844 95.679688 11.175781 C 95.957031 11.261719 96.222656 11.375 96.476562 11.511719 C 96.730469 11.648438 96.96875 11.808594 97.191406 11.996094 C 97.410156 12.179688 97.613281 12.382812 97.796875 12.609375 C 97.976562 12.832031 98.136719 13.074219 98.269531 13.328125 C 98.40625 13.585938 98.515625 13.851562 98.597656 14.128906 C 98.679688 14.40625 98.734375 14.6875 98.757812 14.976562 C 98.785156 15.261719 98.785156 15.550781 98.753906 15.839844 C 98.722656 16.125 98.667969 16.40625 98.582031 16.683594 C 98.496094 16.960938 98.382812 17.226562 98.246094 17.480469 Z M 98.246094 17.480469 " fill-opacity="1" fill-rule="nonzero"/></g></g><g clip-path="url(#df5fcbd35d)"><g clip-path="url(#5f6c36e41f)"><path fill="#004aad" d="M 218.28125 16.421875 C 218.140625 16.675781 217.980469 16.914062 217.796875 17.136719 C 217.609375 17.359375 217.40625 17.5625 217.183594 17.742188 C 216.957031 17.925781 216.71875 18.082031 216.460938 18.21875 C 216.207031 18.351562 215.9375 18.460938 215.664062 18.542969 C 215.386719 18.625 215.101562 18.679688 214.816406 18.707031 C 214.527344 18.734375 214.238281 18.730469 213.953125 18.703125 C 213.664062 18.671875 213.382812 18.613281 213.105469 18.527344 C 212.832031 18.441406 212.566406 18.332031 212.3125 18.191406 C 212.058594 18.054688 211.820312 17.894531 211.597656 17.710938 C 211.375 17.523438 211.171875 17.320312 210.992188 17.09375 C 210.808594 16.871094 210.652344 16.628906 210.515625 16.375 C 210.382812 16.121094 210.273438 15.851562 210.191406 15.574219 C 210.109375 15.296875 210.054688 15.015625 210.027344 14.730469 C 210 14.441406 210.003906 14.152344 210.03125 13.867188 C 210.0625 13.578125 210.121094 13.296875 210.207031 13.019531 C 210.292969 12.746094 210.402344 12.480469 210.542969 12.226562 C 210.679688 11.972656 210.839844 11.734375 211.023438 11.511719 C 211.210938 11.289062 211.414062 11.085938 211.640625 10.90625 C 211.863281 10.722656 212.105469 10.5625 212.359375 10.429688 C 212.617188 10.296875 212.882812 10.1875 213.160156 10.105469 C 213.4375 10.023438 213.71875 9.96875 214.007812 9.941406 C 214.292969 9.914062 214.582031 9.917969 214.867188 9.945312 C 215.15625 9.976562 215.4375 10.035156 215.714844 10.121094 C 215.988281 10.207031 216.253906 10.316406 216.507812 10.457031 C 216.761719 10.59375 217 10.753906 217.222656 10.9375 C 217.445312 11.125 217.648438 11.328125 217.828125 11.554688 C 218.011719 11.777344 218.171875 12.015625 218.304688 12.273438 C 218.441406 12.527344 218.546875 12.796875 218.628906 13.074219 C 218.710938 13.347656 218.765625 13.632812 218.792969 13.917969 C 218.820312 14.207031 218.816406 14.496094 218.789062 14.78125 C 218.757812 15.070312 218.699219 15.351562 218.613281 15.628906 C 218.527344 15.902344 218.417969 16.167969 218.28125 16.421875 Z M 218.28125 16.421875 " fill-opacity="1" fill-rule="nonzero"/></g></g><g clip-path="url(#5ffe195a1d)"><g clip-path="url(#4ca7634c73)"><path fill="#004aad" d="M 70.984375 12.347656 C 70.785156 12.714844 70.523438 13.027344 70.199219 13.292969 C 69.875 13.554688 69.515625 13.746094 69.113281 13.863281 C 68.714844 13.980469 68.308594 14.019531 67.894531 13.976562 C 67.480469 13.933594 67.089844 13.8125 66.722656 13.613281 C 66.355469 13.414062 66.042969 13.152344 65.777344 12.828125 C 65.515625 12.503906 65.324219 12.144531 65.207031 11.742188 C 65.089844 11.34375 65.050781 10.9375 65.09375 10.523438 C 65.136719 10.105469 65.257812 9.714844 65.457031 9.351562 C 65.65625 8.984375 65.917969 8.667969 66.242188 8.40625 C 66.566406 8.144531 66.925781 7.953125 67.328125 7.835938 C 67.726562 7.714844 68.132812 7.679688 68.546875 7.722656 C 68.964844 7.765625 69.355469 7.886719 69.71875 8.085938 C 70.085938 8.285156 70.402344 8.546875 70.664062 8.871094 C 70.925781 9.195312 71.117188 9.554688 71.234375 9.957031 C 71.355469 10.355469 71.390625 10.761719 71.347656 11.175781 C 71.304688 11.589844 71.183594 11.980469 70.984375 12.347656 Z M 70.984375 12.347656 " fill-opacity="1" fill-rule="nonzero"/></g></g><g clip-path="url(#cc150f491d)"><g clip-path="url(#b6a85f572e)"><path fill="#004aad" d="M 49.5625 26.121094 C 49.363281 26.488281 49.101562 26.804688 48.78125 27.066406 C 48.457031 27.328125 48.09375 27.519531 47.695312 27.636719 C 47.292969 27.757812 46.886719 27.792969 46.472656 27.75 C 46.058594 27.707031 45.667969 27.585938 45.300781 27.386719 C 44.933594 27.1875 44.621094 26.925781 44.359375 26.601562 C 44.09375 26.28125 43.90625 25.917969 43.785156 25.519531 C 43.667969 25.117188 43.628906 24.710938 43.671875 24.296875 C 43.714844 23.882812 43.835938 23.492188 44.035156 23.125 C 44.234375 22.757812 44.496094 22.445312 44.820312 22.179688 C 45.144531 21.917969 45.507812 21.726562 45.90625 21.609375 C 46.304688 21.492188 46.710938 21.453125 47.128906 21.496094 C 47.542969 21.539062 47.933594 21.660156 48.300781 21.859375 C 48.664062 22.058594 48.980469 22.320312 49.242188 22.644531 C 49.503906 22.96875 49.695312 23.328125 49.8125 23.730469 C 49.933594 24.128906 49.96875 24.535156 49.925781 24.953125 C 49.882812 25.367188 49.761719 25.757812 49.5625 26.121094 Z M 49.5625 26.121094 " fill-opacity="1" fill-rule="nonzero"/></g></g><g clip-path="url(#e6e5167d78)"><g clip-path="url(#b0d8bf201a)"><path fill="#004aad" d="M 133.058594 32.429688 C 132.859375 32.792969 132.597656 33.109375 132.273438 33.371094 C 131.949219 33.632812 131.585938 33.824219 131.1875 33.941406 C 130.789062 34.0625 130.378906 34.097656 129.964844 34.054688 C 129.550781 34.011719 129.160156 33.890625 128.792969 33.691406 C 128.425781 33.492188 128.113281 33.230469 127.851562 32.910156 C 127.589844 32.585938 127.398438 32.222656 127.277344 31.824219 C 127.160156 31.421875 127.121094 31.015625 127.167969 30.601562 C 127.210938 30.1875 127.332031 29.796875 127.53125 29.429688 C 127.726562 29.0625 127.988281 28.75 128.3125 28.484375 C 128.636719 28.222656 129 28.035156 129.398438 27.914062 C 129.796875 27.796875 130.207031 27.757812 130.621094 27.800781 C 131.035156 27.84375 131.425781 27.964844 131.792969 28.164062 C 132.160156 28.363281 132.472656 28.625 132.734375 28.949219 C 133 29.273438 133.1875 29.636719 133.308594 30.035156 C 133.425781 30.433594 133.464844 30.839844 133.421875 31.257812 C 133.375 31.671875 133.253906 32.0625 133.058594 32.429688 Z M 133.058594 32.429688 " fill-opacity="1" fill-rule="nonzero"/></g></g><g clip-path="url(#2c3291952b)"><g clip-path="url(#75b7b9cde9)"><path fill="#004aad" d="M 191.324219 23.261719 C 191.125 23.625 190.863281 23.941406 190.539062 24.203125 C 190.214844 24.464844 189.851562 24.65625 189.453125 24.773438 C 189.054688 24.894531 188.644531 24.929688 188.230469 24.886719 C 187.816406 24.84375 187.425781 24.722656 187.058594 24.523438 C 186.691406 24.324219 186.378906 24.0625 186.117188 23.742188 C 185.855469 23.417969 185.664062 23.054688 185.542969 22.65625 C 185.425781 22.253906 185.386719 21.847656 185.433594 21.433594 C 185.476562 21.019531 185.597656 20.628906 185.796875 20.261719 C 185.992188 19.894531 186.253906 19.582031 186.578125 19.320312 C 186.902344 19.054688 187.265625 18.867188 187.664062 18.746094 C 188.0625 18.628906 188.472656 18.589844 188.886719 18.632812 C 189.300781 18.675781 189.691406 18.796875 190.058594 18.996094 C 190.425781 19.195312 190.738281 19.457031 191 19.78125 C 191.265625 20.105469 191.453125 20.46875 191.574219 20.867188 C 191.691406 21.265625 191.730469 21.671875 191.6875 22.089844 C 191.640625 22.503906 191.519531 22.894531 191.324219 23.261719 Z M 191.324219 23.261719 " fill-opacity="1" fill-rule="nonzero"/></g></g><g clip-path="url(#5b17900c02)"><g clip-path="url(#136ae1891c)"><path fill="#d9d9d9" d="M 250.921875 167.898438 C 250.648438 167.75 250.796875 167.472656 250.921875 167.898438 L 235.023438 138.527344 C 234.746094 138.378906 234.894531 138.101562 234.894531 138.101562 L 245.445312 121.292969 L 206.683594 123.515625 C 206.410156 123.363281 206.410156 123.363281 206.132812 123.214844 L 193.492188 93.109375 C 193.492188 93.109375 193.363281 92.683594 193.363281 92.683594 C 193.515625 92.40625 193.515625 92.40625 193.792969 92.554688 L 225.871094 88.140625 L 216.253906 72.90625 L 174.691406 57.875 C 174.414062 57.722656 174.140625 57.574219 174.289062 57.296875 L 183.917969 21.746094 C 183.917969 21.746094 184.066406 21.46875 184.066406 21.46875 C 184.066406 21.46875 184.492188 21.34375 184.492188 21.34375 L 203.457031 30.558594 L 205.121094 1.773438 L 205.398438 1.925781 L 218.234375 -45.476562 C 218.386719 -45.753906 218.386719 -45.753906 218.535156 -46.03125 L 265.171875 -60.792969 C 265.171875 -60.792969 265.597656 -60.917969 265.597656 -60.917969 L 321.144531 -30.785156 C 321.421875 -30.636719 321.421875 -30.636719 321.269531 -30.359375 C 321.121094 -30.082031 321.121094 -30.082031 320.972656 -29.808594 L 285.460938 -11.15625 L 339.3125 2.316406 C 339.589844 2.46875 339.589844 2.46875 339.863281 2.617188 C 339.863281 2.617188 339.992188 3.042969 339.566406 3.167969 L 309.734375 37.0625 L 389.019531 13.542969 C 389.019531 13.542969 389.445312 13.417969 389.570312 13.84375 L 422.605469 52.507812 C 422.882812 52.65625 422.730469 52.933594 422.730469 52.933594 C 422.730469 52.933594 422.582031 53.210938 422.15625 53.335938 L 392.277344 55.011719 L 414.1875 89.785156 C 414.460938 89.9375 414.3125 90.214844 414.164062 90.488281 L 382.214844 120.371094 C 382.066406 120.648438 381.789062 120.5 381.511719 120.347656 L 341.09375 100.570312 L 348.792969 131.214844 C 348.792969 131.214844 348.644531 131.488281 348.644531 131.488281 L 338.296875 159.140625 C 338.144531 159.414062 338.144531 159.414062 337.71875 159.542969 L 300.101562 157.019531 L 250.519531 167.320312 C 251.074219 167.621094 250.921875 167.898438 250.921875 167.898438 Z M 236.300781 138.148438 L 251.671875 166.515625 L 300.828125 156.339844 L 338.167969 158.714844 L 348.21875 131.617188 L 340.265625 100.121094 C 340.265625 100.121094 340.140625 99.695312 340.566406 99.566406 C 340.714844 99.292969 340.992188 99.441406 340.992188 99.441406 L 381.960938 119.519531 L 413.332031 90.039062 L 391.019531 54.6875 C 390.746094 54.539062 390.894531 54.261719 390.894531 54.261719 C 391.042969 53.984375 391.042969 53.984375 391.320312 54.136719 L 420.925781 52.308594 L 389.097656 15.375 L 308.257812 39.121094 C 307.832031 39.25 307.832031 39.25 307.707031 38.824219 C 307.429688 38.671875 307.578125 38.394531 307.730469 38.121094 L 338.285156 3.546875 L 283.730469 -9.949219 C 283.457031 -10.097656 283.457031 -10.097656 283.328125 -10.523438 C 283.480469 -10.800781 283.480469 -10.800781 283.628906 -11.078125 L 319.566406 -29.855469 L 265.125 -59.386719 L 220.195312 -45.128906 L 253.425781 -29.25 C 253.703125 -29.097656 253.703125 -29.097656 253.828125 -28.671875 L 255.960938 25.417969 L 291.148438 8.023438 C 291.300781 7.746094 291.574219 7.898438 291.851562 8.046875 C 292.128906 8.199219 291.980469 8.472656 291.980469 8.472656 L 278.316406 67.945312 L 321.949219 46.191406 C 321.949219 46.191406 321.949219 46.191406 322.226562 46.339844 L 373.359375 44.390625 C 373.359375 44.390625 373.632812 44.542969 373.632812 44.542969 C 373.632812 44.542969 373.761719 44.96875 373.761719 44.96875 L 368.367188 88.539062 C 368.367188 88.539062 368.214844 88.816406 368.214844 88.816406 C 368.214844 88.816406 367.789062 88.941406 367.789062 88.941406 L 317.277344 76.5625 L 312.09375 134.910156 C 311.945312 135.1875 311.792969 135.464844 311.519531 135.316406 L 261.539062 136.460938 C 261.261719 136.308594 261.261719 136.308594 260.988281 136.160156 C 260.710938 136.007812 260.859375 135.734375 261.011719 135.457031 L 281.335938 103.921875 L 234.039062 104.730469 C 233.765625 104.582031 233.765625 104.582031 233.488281 104.433594 C 233.210938 104.28125 233.363281 104.007812 233.511719 103.730469 L 251.007812 85.324219 L 211.289062 53.046875 C 211.011719 52.898438 211.164062 52.621094 211.164062 52.621094 C 211.3125 52.34375 211.3125 52.34375 211.738281 52.21875 L 246.597656 44.660156 L 207.484375 2.699219 L 205.691406 31.054688 C 205.542969 31.332031 205.542969 31.332031 205.394531 31.609375 C 205.394531 31.609375 204.964844 31.734375 204.964844 31.734375 L 186 22.519531 L 176.824219 57.242188 L 218.109375 72.125 C 218.109375 72.125 218.382812 72.277344 218.382812 72.277344 L 228.40625 88.085938 C 228.40625 88.085938 228.535156 88.511719 228.535156 88.511719 C 228.382812 88.789062 228.382812 88.789062 228.105469 88.636719 L 195.875 93.328125 L 207.988281 122.433594 L 247.449219 120.234375 C 247.726562 120.382812 247.726562 120.382812 248.003906 120.53125 C 248.28125 120.683594 248.128906 120.957031 247.980469 121.234375 Z M 282.363281 102.6875 C 282.363281 102.6875 282.636719 102.839844 282.363281 102.6875 C 282.488281 103.113281 282.765625 103.265625 282.613281 103.539062 L 262.289062 135.078125 L 310.863281 133.886719 L 316.046875 75.535156 C 316.046875 75.535156 316.195312 75.261719 316.195312 75.261719 C 316.195312 75.261719 316.621094 75.132812 316.621094 75.132812 L 367.132812 87.511719 L 372.90625 45.21875 L 322.480469 47.195312 L 277.84375 69.476562 C 277.695312 69.753906 277.417969 69.605469 277.140625 69.453125 C 276.863281 69.304688 277.015625 69.027344 277.015625 69.027344 L 290.675781 9.554688 L 255.640625 26.671875 C 255.640625 26.671875 255.210938 26.800781 255.210938 26.800781 C 254.9375 26.648438 254.9375 26.648438 255.085938 26.375 L 252.976562 -28.421875 L 219.316406 -44.175781 L 207.65625 1.71875 L 248.003906 44.707031 C 248.277344 44.855469 248.128906 45.132812 248.128906 45.132812 C 247.980469 45.410156 247.980469 45.410156 247.554688 45.535156 L 212.695312 53.09375 L 252.285156 84.941406 C 252.285156 84.941406 252.5625 85.09375 252.414062 85.371094 C 252.414062 85.371094 252.261719 85.644531 252.261719 85.644531 L 235.34375 103.652344 L 282.363281 102.6875 C 282.085938 102.539062 282.363281 102.6875 282.363281 102.6875 Z M 282.363281 102.6875 " fill-opacity="1" fill-rule="nonzero"/></g></g><g clip-path="url(#7da463d079)"><g clip-path="url(#26c27f5e60)"><path fill="#d9d9d9" d="M 204.5625 31.15625 L 162.9375 -11.449219 L 163.664062 -12.128906 L 205.441406 30.203125 L 247.898438 43.578125 L 247.726562 44.558594 Z M 204.5625 31.15625 " fill-opacity="1" fill-rule="nonzero"/></g></g><g clip-path="url(#360acfad2d)"><g clip-path="url(#7eff389e77)"><path fill="#d9d9d9" d="M 175.820312 57.769531 L 175.71875 56.640625 L 210.609375 52.320312 L 185.046875 21.644531 L 162.132812 -12.601562 C 162.132812 -12.601562 162.007812 -13.027344 162.007812 -13.027344 C 162.007812 -13.027344 162.15625 -13.304688 162.15625 -13.304688 L 191.085938 -24.4375 L 188.390625 -61.667969 C 188.390625 -61.667969 188.539062 -61.941406 188.539062 -61.941406 L 225.480469 -102.351562 C 225.480469 -102.351562 225.632812 -102.625 225.90625 -102.476562 C 225.90625 -102.476562 226.183594 -102.328125 226.183594 -102.328125 L 265.828125 -59.363281 C 266.101562 -59.210938 265.953125 -58.9375 265.953125 -58.9375 L 254.105469 -28.523438 C 254.105469 -28.523438 253.957031 -28.246094 253.957031 -28.246094 L 206.804688 1.972656 C 206.804688 1.972656 206.378906 2.097656 206.378906 2.097656 C 206.378906 2.097656 206.101562 1.949219 206.101562 1.949219 L 191.339844 -23.585938 L 162.835938 -12.578125 L 185.34375 21.089844 L 211.589844 52.496094 C 211.863281 52.644531 211.714844 52.921875 211.714844 52.921875 C 211.566406 53.195312 211.566406 53.195312 211.140625 53.324219 Z M 192.066406 -24.265625 L 206.703125 0.84375 L 253.300781 -29.675781 L 264.847656 -59.535156 L 225.882812 -101.773438 L 189.519531 -61.769531 L 192.238281 -25.242188 L 219.089844 -45.730469 L 219.769531 -45.003906 Z M 192.066406 -24.265625 " fill-opacity="1" fill-rule="nonzero"/></g></g><g clip-path="url(#82cd28a48c)"><g clip-path="url(#636e00f01d)"><path fill="#d9d9d9" d="M 317.78125 44.644531 C 313.359375 42.246094 308.257812 39.121094 307.429688 38.671875 C 307.429688 38.671875 307.152344 38.523438 307.152344 38.523438 L 290.699219 8.851562 C 290.699219 8.851562 290.574219 8.425781 290.574219 8.425781 C 290.722656 8.152344 290.722656 8.152344 291 8.300781 L 336.582031 4.054688 L 336.304688 3.90625 L 336.476562 2.925781 L 338.4375 3.273438 L 321.199219 -28.253906 C 320.925781 -28.402344 321.074219 -28.679688 321.222656 -28.953125 C 321.375 -29.230469 321.648438 -29.082031 321.925781 -28.929688 L 389.546875 14.546875 C 389.824219 14.695312 389.675781 14.972656 389.949219 15.121094 C 389.800781 15.398438 389.652344 15.675781 389.375 15.523438 L 374.464844 44.992188 L 392.125 55.289062 L 391.675781 56.117188 L 373.738281 45.671875 C 373.460938 45.519531 373.335938 45.09375 373.484375 44.816406 L 388.09375 15.902344 C 374.789062 22.632812 325.992188 47.3125 323.734375 47.515625 C 322.628906 46.917969 320.269531 45.996094 317.78125 44.644531 Z M 308.03125 37.566406 C 313.40625 40.84375 321.824219 45.765625 323.230469 45.8125 C 325.210938 45.457031 362.253906 27.28125 387.164062 14.324219 L 339.542969 3.871094 C 339.542969 3.871094 339.542969 3.871094 339.113281 4 L 291.550781 8.601562 Z M 323.160156 -27.90625 L 339.863281 2.617188 L 386.785156 13.046875 Z M 323.160156 -27.90625 " fill-opacity="1" fill-rule="nonzero"/></g></g><g clip-path="url(#9ed61ebb1e)"><g clip-path="url(#fe95825f94)"><path fill="#d9d9d9" d="M 255.789062 26.398438 L 255.109375 25.671875 L 283.605469 -10.375 L 253.425781 -29.25 C 253.148438 -29.398438 253.300781 -29.675781 253.023438 -29.824219 C 253.171875 -30.101562 253.171875 -30.101562 253.601562 -30.226562 L 321.824219 -30.058594 L 321.925781 -28.929688 L 255.535156 -29.179688 L 284.757812 -11.179688 C 284.757812 -11.179688 285.035156 -11.03125 284.882812 -10.753906 C 284.882812 -10.753906 284.734375 -10.476562 284.734375 -10.476562 Z M 255.789062 26.398438 " fill-opacity="1" fill-rule="nonzero"/></g></g><g clip-path="url(#b0846bf571)"><g clip-path="url(#a9308a5348)"><path fill="#d9d9d9" d="M 283.71875 -10.246094 L 284.601562 -10.582031 L 291.734375 8.230469 L 290.851562 8.566406 Z M 283.71875 -10.246094 " fill-opacity="1" fill-rule="nonzero"/></g></g><g clip-path="url(#55f05a43ad)"><g clip-path="url(#069d4137fd)"><path fill="#d9d9d9" d="M 277.140625 69.453125 L 247.425781 45.109375 C 247.148438 44.960938 247.300781 44.683594 247.449219 44.40625 L 256.5625 24.3125 L 257.390625 24.761719 L 248.429688 44.582031 L 277.867188 68.777344 Z M 277.140625 69.453125 " fill-opacity="1" fill-rule="nonzero"/></g></g><g clip-path="url(#1c0e4e1a09)"><g clip-path="url(#7f2e7d86b2)"><path fill="#d9d9d9" d="M 190.8125 -24.261719 L 191.730469 -24.480469 L 204.566406 29.988281 L 203.648438 30.207031 Z M 190.8125 -24.261719 " fill-opacity="1" fill-rule="nonzero"/></g></g><g clip-path="url(#f636d998ca)"><g clip-path="url(#75926a933a)"><path fill="#004aad" d="M 392.4375 16.46875 C 392.199219 16.910156 391.886719 17.289062 391.496094 17.601562 C 391.109375 17.917969 390.675781 18.144531 390.195312 18.289062 C 389.714844 18.429688 389.226562 18.476562 388.726562 18.425781 C 388.230469 18.371094 387.761719 18.226562 387.324219 17.988281 C 386.882812 17.75 386.503906 17.4375 386.191406 17.046875 C 385.875 16.660156 385.648438 16.222656 385.503906 15.746094 C 385.363281 15.265625 385.316406 14.777344 385.371094 14.277344 C 385.421875 13.78125 385.566406 13.3125 385.804688 12.871094 C 386.042969 12.433594 386.355469 12.054688 386.746094 11.742188 C 387.132812 11.425781 387.570312 11.195312 388.046875 11.054688 C 388.527344 10.914062 389.015625 10.867188 389.515625 10.917969 C 390.011719 10.972656 390.480469 11.117188 390.921875 11.355469 C 391.359375 11.59375 391.738281 11.90625 392.050781 12.296875 C 392.367188 12.683594 392.597656 13.117188 392.738281 13.597656 C 392.878906 14.078125 392.925781 14.566406 392.875 15.066406 C 392.820312 15.5625 392.675781 16.03125 392.4375 16.46875 Z M 392.4375 16.46875 " fill-opacity="1" fill-rule="nonzero"/></g></g><g clip-path="url(#c1b7c5fa27)"><g clip-path="url(#f108adbf1a)"><path fill="#004aad" d="M 206.695312 30.527344 C 206.457031 30.964844 206.144531 31.34375 205.753906 31.65625 C 205.367188 31.972656 204.929688 32.203125 204.453125 32.34375 C 203.972656 32.484375 203.484375 32.53125 202.984375 32.480469 C 202.488281 32.425781 202.019531 32.28125 201.578125 32.042969 C 201.140625 31.804688 200.761719 31.492188 200.449219 31.101562 C 200.132812 30.714844 199.902344 30.28125 199.761719 29.800781 C 199.621094 29.320312 199.574219 28.832031 199.625 28.335938 C 199.679688 27.835938 199.824219 27.367188 200.0625 26.929688 C 200.300781 26.488281 200.613281 26.109375 201.003906 25.796875 C 201.390625 25.480469 201.824219 25.253906 202.304688 25.109375 C 202.785156 24.96875 203.273438 24.921875 203.773438 24.976562 C 204.269531 25.027344 204.738281 25.171875 205.175781 25.410156 C 205.617188 25.648438 205.996094 25.964844 206.308594 26.351562 C 206.625 26.742188 206.851562 27.175781 206.996094 27.652344 C 207.136719 28.132812 207.183594 28.621094 207.132812 29.121094 C 207.078125 29.617188 206.933594 30.085938 206.695312 30.527344 Z M 206.695312 30.527344 " fill-opacity="1" fill-rule="nonzero"/></g></g><g clip-path="url(#f99448ebe2)"><g clip-path="url(#da6c9713a0)"><path fill="#004aad" d="M 208.613281 2.59375 C 208.453125 2.886719 208.246094 3.140625 207.984375 3.351562 C 207.726562 3.558594 207.4375 3.710938 207.117188 3.808594 C 206.796875 3.902344 206.472656 3.933594 206.140625 3.898438 C 205.808594 3.863281 205.496094 3.765625 205.203125 3.605469 C 204.910156 3.449219 204.65625 3.238281 204.449219 2.980469 C 204.238281 2.71875 204.085938 2.429688 203.992188 2.109375 C 203.894531 1.792969 203.867188 1.464844 203.898438 1.132812 C 203.933594 0.800781 204.03125 0.488281 204.191406 0.195312 C 204.351562 -0.0976562 204.558594 -0.347656 204.816406 -0.558594 C 205.078125 -0.769531 205.367188 -0.921875 205.6875 -1.015625 C 206.007812 -1.109375 206.332031 -1.140625 206.664062 -1.105469 C 206.996094 -1.070312 207.308594 -0.972656 207.601562 -0.816406 C 207.894531 -0.65625 208.144531 -0.445312 208.355469 -0.1875 C 208.566406 0.0703125 208.71875 0.359375 208.8125 0.679688 C 208.90625 1 208.9375 1.324219 208.902344 1.65625 C 208.867188 1.988281 208.769531 2.300781 208.613281 2.59375 Z M 208.613281 2.59375 " fill-opacity="1" fill-rule="nonzero"/></g></g><g clip-path="url(#9220fe3e52)"><g clip-path="url(#d6e36fa270)"><path fill="#004aad" d="M 187.234375 23.546875 C 187.074219 23.839844 186.863281 24.089844 186.605469 24.300781 C 186.347656 24.511719 186.058594 24.664062 185.738281 24.757812 C 185.417969 24.851562 185.09375 24.882812 184.761719 24.847656 C 184.429688 24.8125 184.117188 24.714844 183.824219 24.558594 C 183.53125 24.398438 183.277344 24.1875 183.066406 23.929688 C 182.859375 23.671875 182.707031 23.382812 182.609375 23.0625 C 182.515625 22.742188 182.484375 22.414062 182.519531 22.085938 C 182.554688 21.753906 182.652344 21.441406 182.8125 21.148438 C 182.96875 20.855469 183.179688 20.601562 183.4375 20.390625 C 183.699219 20.183594 183.988281 20.03125 184.308594 19.933594 C 184.625 19.839844 184.953125 19.808594 185.285156 19.84375 C 185.617188 19.878906 185.929688 19.976562 186.222656 20.136719 C 186.515625 20.292969 186.765625 20.503906 186.976562 20.761719 C 187.1875 21.023438 187.339844 21.3125 187.433594 21.632812 C 187.527344 21.949219 187.558594 22.277344 187.523438 22.609375 C 187.488281 22.941406 187.390625 23.253906 187.234375 23.546875 Z M 187.234375 23.546875 " fill-opacity="1" fill-rule="nonzero"/></g></g><g clip-path="url(#0313e85db1)"><g clip-path="url(#02d052a771)"><path fill="#004aad" d="M 341.050781 5.046875 C 340.890625 5.339844 340.679688 5.59375 340.421875 5.800781 C 340.164062 6.011719 339.875 6.164062 339.554688 6.261719 C 339.234375 6.355469 338.910156 6.382812 338.578125 6.351562 C 338.246094 6.316406 337.933594 6.21875 337.640625 6.058594 C 337.347656 5.898438 337.09375 5.691406 336.882812 5.433594 C 336.675781 5.171875 336.523438 4.882812 336.425781 4.5625 C 336.332031 4.242188 336.300781 3.917969 336.335938 3.585938 C 336.371094 3.253906 336.46875 2.941406 336.628906 2.648438 C 336.785156 2.355469 336.996094 2.105469 337.253906 1.894531 C 337.515625 1.683594 337.804688 1.53125 338.125 1.4375 C 338.441406 1.34375 338.769531 1.3125 339.101562 1.347656 C 339.433594 1.382812 339.746094 1.480469 340.039062 1.636719 C 340.332031 1.796875 340.582031 2.003906 340.792969 2.265625 C 341.003906 2.523438 341.15625 2.8125 341.25 3.132812 C 341.34375 3.453125 341.375 3.777344 341.339844 4.109375 C 341.304688 4.441406 341.207031 4.753906 341.050781 5.046875 Z M 341.050781 5.046875 " fill-opacity="1" fill-rule="nonzero"/></g></g><g clip-path="url(#54000e5f94)"><g clip-path="url(#41c4b67327)"><path fill="#004aad" d="M 258.449219 26.769531 C 258.289062 27.0625 258.082031 27.3125 257.820312 27.523438 C 257.5625 27.730469 257.273438 27.882812 256.953125 27.980469 C 256.632812 28.074219 256.308594 28.105469 255.976562 28.070312 C 255.644531 28.035156 255.332031 27.9375 255.039062 27.777344 C 254.746094 27.621094 254.496094 27.410156 254.285156 27.152344 C 254.074219 26.894531 253.921875 26.601562 253.828125 26.285156 C 253.734375 25.964844 253.703125 25.636719 253.738281 25.304688 C 253.773438 24.976562 253.867188 24.664062 254.027344 24.367188 C 254.1875 24.074219 254.394531 23.824219 254.65625 23.613281 C 254.914062 23.40625 255.203125 23.25 255.523438 23.15625 C 255.84375 23.0625 256.167969 23.03125 256.5 23.066406 C 256.832031 23.101562 257.144531 23.199219 257.4375 23.359375 C 257.730469 23.515625 257.984375 23.726562 258.191406 23.984375 C 258.402344 24.242188 258.554688 24.535156 258.648438 24.851562 C 258.746094 25.171875 258.773438 25.5 258.738281 25.832031 C 258.707031 26.160156 258.609375 26.472656 258.449219 26.769531 Z M 258.449219 26.769531 " fill-opacity="1" fill-rule="nonzero"/></g></g><g clip-path="url(#9f5524283d)"><g clip-path="url(#9837029828)"><path fill="#004aad" d="M 294.59375 10.25 C 294.355469 10.6875 294.039062 11.066406 293.652344 11.382812 C 293.261719 11.695312 292.828125 11.925781 292.347656 12.066406 C 291.871094 12.210938 291.382812 12.253906 290.882812 12.203125 C 290.386719 12.148438 289.917969 12.003906 289.476562 11.765625 C 289.039062 11.527344 288.660156 11.214844 288.34375 10.824219 C 288.03125 10.4375 287.800781 10.003906 287.660156 9.523438 C 287.515625 9.042969 287.472656 8.554688 287.523438 8.058594 C 287.578125 7.558594 287.722656 7.089844 287.960938 6.652344 C 288.199219 6.210938 288.511719 5.835938 288.902344 5.519531 C 289.289062 5.203125 289.722656 4.976562 290.203125 4.832031 C 290.683594 4.691406 291.171875 4.644531 291.667969 4.699219 C 292.167969 4.75 292.636719 4.894531 293.074219 5.132812 C 293.515625 5.371094 293.890625 5.6875 294.207031 6.074219 C 294.523438 6.464844 294.75 6.898438 294.894531 7.378906 C 295.035156 7.855469 295.082031 8.34375 295.027344 8.84375 C 294.976562 9.339844 294.832031 9.808594 294.59375 10.25 Z M 294.59375 10.25 " fill-opacity="1" fill-rule="nonzero"/></g></g></g></g></g></g></svg>